<?xml version="1.0" encoding="UTF-8"?>
<svg width="46px" height="46px" viewBox="0 0 46 46" version="1.1" xmlns="http://www.w3.org/2000/svg" xmlns:xlink="http://www.w3.org/1999/xlink">
    <title>feed_icon</title>
    <g id="Page-1" stroke="none" stroke-width="1" fill="none" fill-rule="evenodd">
        <g id="feed_icon" fill-rule="nonzero">
            <path d="M23,0 C35.7025492,0 46,10.2974508 46,23 C46,35.7025492 35.7025492,46 23,46 C10.2974508,46 0,35.7025492 0,23 C0,10.2974508 10.2974508,0 23,0 Z" id="Path_1159" fill="#FFFFFF"></path>
            <g id="rss" transform="translate(12.000000, 9.000000)" fill="#000000">
                <path d="M7.512,20.613 C7.512,18.7054085 5.96559153,17.159 4.058,17.159 C2.15040847,17.159 0.604,18.7054085 0.604,20.613 C0.604,22.5205915 2.15040847,24.067 4.058,24.067 C5.96467775,24.0647957 7.50979575,22.5196777 7.512,20.613 Z" id="XMLID_789_"></path>
                <path d="M0.993,13.262 C3.74895042,13.2559315 6.39222446,14.3553145 8.331,16.314 C10.2876861,18.2749191 11.3821057,20.9348516 11.372,23.705 C11.372,23.9176296 11.5443704,24.09 11.757,24.09 L16.187,24.09 C16.3996296,24.09 16.5720074,23.9176296 16.5720074,23.705 C16.5803153,15.0864245 9.61053539,8.08756662 0.992,8.06 C0.779370371,8.06 0.606998696,8.23237037 0.606998696,8.445 L0.606998696,12.876 C0.606733536,12.978455 0.647315702,13.0767905 0.719762587,13.1492374 C0.792209472,13.2216843 0.890544979,13.2622665 0.993,13.262 L0.993,13.262 Z" id="XMLID_790_"></path>
                <path d="M1.003,0 C0.788161232,0 0.614,0.174161232 0.614,0.389 L0.614,4.857 C0.614,5.07183877 0.788161232,5.246 1.003,5.246 C11.1648057,5.28568646 19.3770674,13.5431295 19.361,23.705 C19.361,23.9198388 19.5351612,24.094 19.75,24.094 L24.217,24.094 C24.4318388,24.094 24.6060126,23.9198388 24.6060126,23.705 C24.6193043,10.6473801 14.0605559,0.0430021695 1.003,0 Z" id="XMLID_791_"></path>
            </g>
        </g>
    </g>
</svg>