<?xml version="1.0" encoding="UTF-8"?>
<svg width="1200px" height="650px" viewBox="0 0 1200 650" version="1.1" xmlns="http://www.w3.org/2000/svg" xmlns:xlink="http://www.w3.org/1999/xlink">
    <title>cache-diagram</title>
    <g id="cache-diagram" stroke="none" stroke-width="1" fill="none" fill-rule="evenodd">
        <rect fill="#092E20" x="0" y="0" width="1200" height="650"></rect>
        <rect id="Rectangle" fill="#078F0E" transform="translate(129.000000, 118.500000) rotate(-270.000000) translate(-129.000000, -118.500000) " x="47" y="84" width="164" height="69" rx="5"></rect>
        <rect id="Rectangle-Copy-3" fill="#078F0E" transform="translate(219.000000, 324.500000) rotate(-270.000000) translate(-219.000000, -324.500000) " x="137" y="290" width="164" height="69" rx="5"></rect>
        <rect id="Rectangle-Copy-4" fill="#078F0E" transform="translate(129.000000, 530.500000) rotate(-270.000000) translate(-129.000000, -530.500000) " x="47" y="496" width="164" height="69" rx="5"></rect>
        <rect id="Rectangle-Copy-2" fill="#CDB700" transform="translate(658.000000, 324.500000) rotate(-270.000000) translate(-658.000000, -324.500000) " x="510" y="248" width="296" height="153" rx="5"></rect>
        <g id="Group-2" transform="translate(929.000000, 176.000000)">
            <g id="Group" fill="#434EFF" stroke="#979797">
                <path d="M-47.904179,67 L206.743014,67 C208.734463,67.0000076 210.536038,68.1817858 211.329257,70.0084426 C223.776419,98.6722951 230,127.336148 230,156 C230,184.663856 223.776417,213.327712 211.329252,241.991567 C210.536028,243.818222 208.734452,245 206.743003,245 L-47.9041748,245 C-49.5610292,245 -50.9041751,243.656854 -50.9041751,242 C-50.9041751,241.699411 -50.8589996,241.400528 -50.770162,241.113366 C-41.9931548,212.742244 -37.6046512,184.371122 -37.6046512,156 C-37.6046512,127.628874 -41.9931561,99.2577475 -50.7701659,70.8866212 C-51.2598262,69.3037833 -50.3736433,67.6236848 -48.790809,67.1340126 C-48.5036484,67.0451754 -48.2047671,67 -47.904179,67 Z" id="Rectangle-Copy" transform="translate(89.000000, 156.000000) rotate(-270.000000) translate(-89.000000, -156.000000) "></path>
                <ellipse id="Oval" cx="89" cy="17" rx="89" ry="17"></ellipse>
            </g>
            <text id="Database" transform="translate(89.000000, 158.500000) rotate(-270.000000) translate(-89.000000, -158.500000) " font-family="HelveticaNeue-Medium, Helvetica Neue" font-size="38" font-weight="400" fill="#FEFEFE">
                <tspan x="5.229" y="173">Database</tspan>
            </text>
        </g>
        <path id="Path" d="M194.218176,97.023993 L194.330468,97.0561829 L538.85,217.686 L540.557938,212.811952 C540.698633,212.410129 541.115423,212.183816 541.521094,212.271258 L541.622114,212.299735 C541.744477,212.34258 541.855185,212.413325 541.94547,212.506369 L541.94547,212.506369 L551.545077,222.399342 C551.866265,222.730346 551.858308,223.259052 551.527304,223.58024 C551.397626,223.706073 551.230633,223.786451 551.05139,223.809311 L551.05139,223.809311 L537.377247,225.553212 C536.919732,225.61156 536.501541,225.287971 536.443193,224.830455 C536.426791,224.701849 536.440558,224.571191 536.483402,224.448827 L536.483402,224.448827 L538.189,219.574 L193.669532,98.9438171 C193.148276,98.7613046 192.87367,98.1907876 193.056183,97.6695318 C193.225659,97.1855086 193.72969,96.9141581 194.218176,97.023993 Z" fill="#FEFEFE" fill-rule="nonzero"></path>
        <path id="Path-2" d="M538.639296,317.953482 C538.768943,317.953969 538.896696,317.984635 539.012437,318.043051 L539.012437,318.043051 L551.318761,324.254152 C551.730511,324.461966 551.895835,324.964222 551.688021,325.375973 C551.606605,325.537285 551.475065,325.66784 551.313144,325.748041 L551.313144,325.748041 L538.96047,331.866439 C538.547168,332.071151 538.046169,331.902056 537.841457,331.488755 C537.783913,331.372577 537.754208,331.244598 537.754696,331.114951 L537.754696,331.114951 L537.774,325.95 L284.996241,324.999993 C284.44396,324.997917 283.997931,324.548521 284.000007,323.996241 C284.002083,323.44396 284.451479,322.997931 285.003759,323.000007 L537.781,323.95 L537.801047,318.785452 C537.802648,318.359712 538.122551,318.009578 538.534517,317.959595 Z" fill="#FEFEFE" fill-rule="nonzero"></path>
        <path id="Path-3" d="M537.254716,424.405894 L537.383606,424.412602 L551.053351,426.190647 C551.51072,426.250138 551.833264,426.669135 551.773773,427.126504 C551.750466,427.305689 551.669671,427.47248 551.543515,427.601844 L551.543515,427.601844 L541.919231,437.470813 C541.597218,437.801013 541.068493,437.80765 540.738293,437.485636 C540.645475,437.395119 540.575006,437.284235 540.532467,437.161765 L540.532467,437.161765 L538.838,432.282 L194.32811,551.944639 C193.8064,552.12585 193.236571,551.84982 193.055361,551.32811 C192.887094,550.843665 193.11308,550.317729 193.563932,550.09998 L193.67189,550.055361 L538.182,430.393 L536.487006,425.514751 C536.347315,425.112577 536.532986,424.676163 536.905058,424.492376 L537.001879,424.451858 C537.124349,424.409319 537.255042,424.395879 537.383606,424.412602 Z" fill="#FEFEFE" fill-rule="nonzero"></path>
        <text id="Client-2" transform="translate(129.000000, 118.500000) rotate(-270.000000) translate(-129.000000, -118.500000) " font-family="HelveticaNeue-Medium, Helvetica Neue" font-size="28" font-weight="400" fill="#FEFEFE">
            <tspan x="79.986" y="129">Client 2</tspan>
        </text>
        <text id="Client-1" transform="translate(218.500000, 324.500000) rotate(-270.000000) translate(-218.500000, -324.500000) " font-family="HelveticaNeue-Medium, Helvetica Neue" font-size="28" font-weight="400" fill="#FEFEFE">
            <tspan x="169.486" y="335">Client 1</tspan>
        </text>
        <text id="Client-3" transform="translate(129.500000, 530.500000) rotate(-270.000000) translate(-129.500000, -530.500000) " font-family="HelveticaNeue-Medium, Helvetica Neue" font-size="28" font-weight="400" fill="#FEFEFE">
            <tspan x="80.486" y="541">Client 3</tspan>
        </text>
        <text id="Cache" transform="translate(658.500000, 322.500000) rotate(-270.000000) translate(-658.500000, -322.500000) " font-family="HelveticaNeue-Medium, Helvetica Neue" font-size="38" font-weight="400" fill="#000000">
            <tspan x="602.184" y="337">Cache</tspan>
        </text>
        <path id="Path-4-Copy" d="M895.612893,308 C895.742541,308 895.870408,308.030185 895.986368,308.088165 L895.986368,308.088165 L908.315954,314.252959 C908.728483,314.459223 908.895694,314.960854 908.689429,315.373383 C908.608621,315.535001 908.477572,315.66605 908.315954,315.746858 L908.315954,315.746858 L895.986368,321.911652 C895.573839,322.117916 895.072208,321.950706 894.865943,321.538177 C894.807963,321.422216 894.777778,321.294349 894.777778,321.164702 L894.777778,321.164702 L894.777,316 L755,316 C754.447715,316 754,315.552285 754,315 C754,314.487164 754.38604,314.064493 754.883379,314.006728 L755,314 L894.777,314 L894.777778,308.835115 C894.777778,308.409372 895.096362,308.058039 895.508138,308.006507 Z" fill="#FEFEFE" fill-rule="nonzero"></path>
        <path id="Path-4-Copy-2" d="M767.013632,328.088348 C767.426161,327.882084 767.927792,328.049294 768.134057,328.461823 C768.192037,328.577784 768.222222,328.705651 768.222222,328.835298 L768.222222,328.835298 L768.222,333.999 L908,334 C908.552285,334 909,334.447715 909,335 C909,335.512836 908.61396,335.935507 908.116621,335.993272 L908,336 L768.222,335.999 L768.222222,341.164885 C768.222222,341.590628 767.903638,341.941961 767.491862,341.993493 L767.387107,342 C767.257459,342 767.129592,341.969815 767.013632,341.911835 L767.013632,341.911835 L754.684046,335.747041 C754.271517,335.540777 754.104306,335.039146 754.310571,334.626617 C754.391379,334.464999 754.522428,334.33395 754.684046,334.253142 L754.684046,334.253142 Z" fill="#434EFF" fill-rule="nonzero"></path>
        <text id="request-1" font-family="HelveticaNeue-Medium, Helvetica Neue" font-size="24" font-weight="400" fill="#FEFEFE">
            <tspan x="359.696" y="309">request 1</tspan>
        </text>
        <text id="request-2" transform="translate(376.000000, 132.000000) rotate(-339.000000) translate(-376.000000, -132.000000) " font-family="HelveticaNeue-Medium, Helvetica Neue" font-size="24" font-weight="400" fill="#FEFEFE">
            <tspan x="324.196" y="141">request 2</tspan>
        </text>
        <text id="request-3" transform="translate(339.000000, 470.000000) rotate(-19.000000) translate(-339.000000, -470.000000) " font-family="HelveticaNeue-Medium, Helvetica Neue" font-size="24" font-weight="400" fill="#FEFEFE">
            <tspan x="287.196" y="479">request 3</tspan>
        </text>
        <text id="request-1" font-family="HelveticaNeue-Medium, Helvetica Neue" font-size="20" font-weight="400" fill="#FEFEFE">
            <tspan x="782.33" y="305">request 1</tspan>
        </text>
        <text id="response" font-family="HelveticaNeue-Medium, Helvetica Neue" font-size="20" font-weight="400" fill="#434EFF">
            <tspan x="782.88" y="359">response</tspan>
        </text>
        <g id="Group-3" transform="translate(285.000000, 344.500000)" fill="#434EFF">
            <path id="Path-4-Copy-3" d="M12.0136319,-6.41165159 C12.426161,-6.6179161 12.9277922,-6.45070568 13.1340567,-6.03817665 C13.1920369,-5.92221634 13.2222222,-5.79434927 13.2222222,-5.66470171 L13.2222222,-5.66470171 L13.222,-0.5 L266,-0.5 C266.552285,-0.5 267,-0.0522847498 267,0.5 C267,1.01283584 266.61396,1.43550716 266.116621,1.49327227 L266,1.5 L13.222,1.5 L13.2222222,6.66488464 C13.2222222,7.09062754 12.9036381,7.44196113 12.491862,7.49349327 L12.3871069,7.5 C12.2574593,7.5 12.1295922,7.46981468 12.0136319,7.41183453 L12.0136319,7.41183453 L-0.315954425,1.24704135 C-0.728483454,1.04077684 -0.895693881,0.539145556 -0.689429366,0.126616528 C-0.608620514,-0.0350011779 -0.477572131,-0.166049561 -0.315954425,-0.246858413 L-0.315954425,-0.246858413 Z" fill-rule="nonzero"></path>
            <text id="response-copy" font-family="HelveticaNeue-Medium, Helvetica Neue" font-size="24" font-weight="400">
                <tspan x="71.356" y="27.5">response</tspan>
            </text>
        </g>
        <path id="Path-4-Copy-3" d="M554.943926,449.669844 C555.113242,450.153923 554.888396,450.680347 554.438017,450.899073 L554.330156,450.943926 L210.536,571.192 L212.241112,576.067716 C212.381674,576.469586 212.196949,576.906402 211.825276,577.090995 L211.728543,577.131722 C211.606166,577.174526 211.475503,577.188249 211.346902,577.171805 L211.346902,577.171805 L197.673337,575.423382 C197.21584,575.364882 196.892389,574.946585 196.950889,574.489088 C196.973807,574.309854 197.054241,574.142887 197.180117,574.01325 L197.180117,574.01325 L206.782995,564.123452 C207.104292,563.792555 207.633001,563.784773 207.963898,564.10607 C208.056912,564.196386 208.127621,564.307117 208.170425,564.429495 L208.170425,564.429495 L209.875,569.304 L553.669844,449.056074 C554.19116,448.873733 554.761586,449.148528 554.943926,449.669844 Z" fill="#434EFF" fill-rule="nonzero"></path>
        <path id="Path-4-Copy-4" d="M198.620522,114.434917 C199.077987,114.37617 199.496459,114.699394 199.555206,115.156859 C199.57172,115.285451 199.558067,115.416121 199.515329,115.538522 L199.515329,115.538522 L197.812,120.414 L543.329646,241.055895 C543.85106,241.237953 544.126163,241.808231 543.944105,242.329646 C543.775051,242.813816 543.271257,243.085606 542.782675,242.976197 L542.670354,242.944105 L197.153,122.302 L195.450937,127.178943 C195.310592,127.580889 194.894,127.807565 194.488253,127.720477 L194.387208,127.692088 C194.264807,127.64935 194.154038,127.578701 194.063672,127.485736 L194.063672,127.485736 L184.455447,117.601132 C184.133971,117.270409 184.141467,116.741696 184.472191,116.42022 C184.601759,116.294274 184.768682,116.21375 184.947904,116.190734 L184.947904,116.190734 Z" fill="#434EFF" fill-rule="nonzero"></path>
        <text id="response-copy" transform="translate(366.955186, 536.744318) rotate(-20.000000) translate(-366.955186, -536.744318) " font-family="HelveticaNeue-Medium, Helvetica Neue" font-size="24" font-weight="400" fill="#434EFF">
            <tspan x="315.811186" y="545.744318">response</tspan>
        </text>
        <text id="response-copy-2" transform="translate(349.500000, 195.000000) rotate(20.000000) translate(-349.500000, -195.000000) " font-family="HelveticaNeue-Medium, Helvetica Neue" font-size="24" font-weight="400" fill="#434EFF">
            <tspan x="298.356" y="204">response</tspan>
        </text>
    </g>
</svg>