<?xml version="1.0" encoding="UTF-8"?>
<svg width="1200px" height="650px" viewBox="0 0 1200 650" version="1.1" xmlns="http://www.w3.org/2000/svg" xmlns:xlink="http://www.w3.org/1999/xlink">
    <title>django copy</title>
    <g id="django-copy" stroke="none" stroke-width="1" fill="none" fill-rule="evenodd">
        <rect fill="#3D85AE" x="0" y="0" width="1200" height="650"></rect>
        <g id="domain-names" transform="translate(195.000000, 31.000000)">
            <g id="g6" transform="translate(0.000000, 58.000000)" stroke="#D3D3D3" stroke-dasharray="12.1212,12.1212">
                <path d="M109.421498,219.36916 C169.636565,219.36916 218.450522,170.332308 218.450522,109.842286 C218.450522,49.3522639 169.636565,0.315412186 109.421498,0.315412186 C49.2064301,0.315412186 0.392473118,49.3522639 0.392473118,109.842286 C0.392473118,170.332308 49.2064301,219.36916 109.421498,219.36916 Z" id="circle4"></path>
            </g>
            <g id="g32" transform="translate(686.000000, 372.000000)" fill-rule="nonzero">
                <g id="g28">
                    <g id="g10" transform="translate(0.000000, 44.951220)" fill="#1A87D8">
                        <path d="M55.8,75.6284553 C49.0506329,44.0837398 28.3316456,15.7723577 0.235443038,0 C15.2253165,28.4691057 33.1974684,55.3609756 53.7594937,80.1235772 L55.8,75.6284553 Z" id="path8"></path>
                    </g>
                    <g id="g14" transform="translate(25.113924, 1.577236)" fill="#2A94F4">
                        <path d="M38.2202532,130.910569 C11.5367089,93.3723577 -1.8835443,46.4495935 0.941772152,0.394308943 C18.2860759,42.900813 31.3139241,87.1422764 39.9468354,132.330081 L38.2202532,130.910569 Z" id="path12"></path>
                    </g>
                    <g id="g18" transform="translate(52.582278, 1.577236)" fill="#1A87D8">
                        <path d="M3.06075949,132.172358 C2.27594937,109.065854 1.41265823,85.801626 5.02278481,63.0105691 C8.63291139,40.2195122 16.9518987,17.5861789 32.4126582,0.473170732 C34.7670886,47.7902439 23.3873418,95.6593496 0,136.746341 L3.06075949,132.172358 Z" id="path16"></path>
                    </g>
                    <g id="g22" transform="translate(46.303797, 0.000000)" fill="#B0E1FF">
                        <path d="M10.4379747,135.8 C-4.63037975,92.1105691 -2.11898734,42.6642276 17.1873418,0.709756098 C29.2734177,44.5569106 18.6,91.0853659 7.84810127,135.247967 L10.4379747,135.8 Z" id="path20"></path>
                    </g>
                    <g id="g26" transform="translate(53.367089, 29.967480)" fill="#2A94F4">
                        <path d="M5.41518987,89.6658537 C9.57468354,51.3390244 35.0025316,16.0878049 69.9265823,0.236585366 C55.721519,38.4845528 31.5493671,72.8682927 0.392405063,99.0504065 L5.41518987,89.6658537 Z" id="path24"></path>
                    </g>
                </g>
                <path d="M94.8050633,112.930081 L90.4886076,187.296748 C90.4886076,190.845528 87.5848101,193.842276 83.9746835,193.842276 L32.6481013,193.842276 C29.1164557,193.842276 26.1341772,190.92439 26.1341772,187.296748 L25.1924051,170.499187 L21.8177215,112.930081 C21.8177215,109.381301 24.721519,106.384553 28.3316456,106.384553 L88.2911392,106.384553 C90.6455696,106.384553 92.6860759,107.646341 93.8632911,109.539024 L93.8632911,109.539024 C94.4126582,110.564228 94.8050633,111.668293 94.8050633,112.930081 Z" id="path30" fill="#FFBE55"></path>
            </g>
            <g id="g36" transform="translate(36.000000, 22.000000)" fill="#F7F7F7" fill-rule="nonzero">
                <path d="M81.6955645,102.779412 C66.3629032,113.569281 51.5020161,126.013072 42.6169355,142.552288 C33.7318548,159.091503 32.0020161,180.592484 42.4596774,196.107843 C56.5342742,216.821242 89.0866935,223.909477 94.1975806,248.482026 C97.8931452,266.045098 84.4475806,282.820588 69.3508065,292.586601 C54.2540323,302.352614 36.641129,308.338235 23.6673387,320.782026 C4.08870968,339.526471 -0.864919355,368.982026 0.157258065,396.074837 C1.25806452,424.191503 9.35685484,454.828431 32.6310484,470.580065 C61.4879032,490.19085 100.487903,479.40098 133.197581,467.193464 C176.915323,450.890523 220.16129,433.484967 263.407258,416.079412 C358.233871,377.960458 452.981855,339.841503 547.808468,301.643791 C557.951613,297.548366 568.487903,293.216667 575.800403,284.947059 C590.189516,268.644118 586.258065,241.86634 572.497984,225.012092 C558.737903,208.157843 537.822581,199.021895 517.300403,191.618627 C496.856855,184.215359 475.469758,177.678431 458.485887,164.053268 C441.502016,150.428105 429.78629,127.509477 436.3125,106.71732 C441.816532,89.0754902 458.879032,76.7892157 463.754032,58.9898693 C470.201613,35.5199346 452.274194,10.9473856 429.943548,1.41764706 C407.612903,-8.1120915 162.604839,45.6797386 81.6955645,102.779412 Z" id="path34"></path>
            </g>
            <rect id="rect38" fill="#0B4870" fill-rule="nonzero" x="344" y="491" width="111" height="59"></rect>
            <path d="M780.038756,619 L18.9612514,619 C14.0089809,619 10,614.963568 10,609.977387 L10,565.022613 C10,560.036432 14.0089809,556 18.9612514,556 L780.038756,556 C784.991027,556 789,560.036432 789,565.022613 L789,609.977387 C789,614.963568 784.991027,619 780.038756,619 Z" id="path40" fill="#F2F2F2" fill-rule="nonzero"></path>
            <path d="M286.225444,536 L511.695858,536 C522.871006,536 532,544.914729 532,556 L532,556 L266,556 L266,556 C266,544.992248 275.050296,536 286.225444,536 Z" id="path42" fill="#2390E2" fill-rule="nonzero"></path>
            <path d="M124.394876,135 L674.605124,135 C678.695906,135 682,138.305217 682,142.397391 L682,489.602609 C682,493.694783 678.695906,497 674.605124,497 L124.394876,497 C120.304094,497 117,493.694783 117,489.602609 L117,142.397391 C117,138.305217 120.304094,135 124.394876,135 Z" id="path44" fill="#2390E2" fill-rule="nonzero"></path>
            <path d="M135.839423,151 L662.160577,151 C665.934052,151 669,154.070717 669,157.850061 L669,468.149939 C669,471.929283 665.934052,475 662.160577,475 L135.839423,475 C132.065948,475 129,471.929283 129,468.149939 L129,157.850061 C129.078614,154.070717 132.144563,151 135.839423,151 Z" id="path46" fill="#E9F7FF" fill-rule="nonzero"></path>
            <path d="M612,199.45 L612,432.55 C612,437.7475 607.750214,442 602.556031,442 L161.443969,442 C156.249786,442 152,437.7475 152,432.55 L152,199.45 C152,194.2525 156.249786,190 161.443969,190 L602.556031,190 C607.750214,190 612,194.17375 612,199.45 Z" id="path48" fill="#B0E1FF" fill-rule="nonzero"></path>
            <path d="M641,223.447048 L641,456.552952 C641,461.748828 636.750214,466 631.556031,466 L190.443969,466 C185.249786,466 181,461.748828 181,456.552952 L181,223.447048 C181,218.251172 185.249786,214 190.443969,214 L631.556031,214 C636.750214,214 641,218.251172 641,223.447048 Z" id="path50" stroke="#B0E1FF" stroke-width="2"></path>
            <path d="M612,199.538462 L612,221 L152,221 L152,199.538462 C152,194.292308 156.249786,190 161.443969,190 L602.556031,190 C607.750214,190 612,194.212821 612,199.538462 Z" id="path52" fill="#FFBE55" fill-rule="nonzero"></path>
            <path d="M582.570627,316 L181.429373,316 C176.243218,316 172,311.73868 172,306.530401 L172,264.469599 C172,259.26132 176.243218,255 181.429373,255 L582.570627,255 C587.756782,255 592,259.26132 592,264.469599 L592,306.530401 C592,311.73868 587.756782,316 582.570627,316 Z" id="path54" fill="#FFFFFF" fill-rule="nonzero"></path>
            <g id="g70" transform="translate(188.000000, 273.000000)" fill="#B0E1FF" fill-rule="nonzero">
                <path d="M0,24.897561 L0,1.17073171 L4.56393443,1.17073171 L4.56393443,9.91219512 C5.19344262,9.2097561 6.05901639,8.58536585 7.08196721,8.03902439 C8.10491803,7.49268293 9.2852459,7.25853659 10.6229508,7.25853659 C12.5114754,7.25853659 13.9278689,7.72682927 14.8721311,8.66341463 C15.8163934,9.6 16.2885246,10.9268293 16.2885246,12.6439024 L16.2885246,24.8195122 L11.7245902,24.8195122 L11.7245902,14.3609756 C11.7245902,13.1902439 11.4885246,12.4097561 10.9377049,11.9414634 C10.3868852,11.4731707 9.6,11.2390244 8.57704918,11.2390244 C7.71147541,11.2390244 7.00327869,11.395122 6.29508197,11.7853659 C5.58688525,12.1756098 5.03606557,12.6439024 4.64262295,13.1902439 L4.64262295,24.7414634 L0,24.7414634 L0,24.897561 Z" id="path56"></path>
                <path d="M18.8065574,11.7073171 L18.8065574,7.80487805 L21.6393443,7.80487805 L21.6393443,3.12195122 L26.2032787,3.12195122 L26.2032787,7.80487805 L29.7442623,7.80487805 L29.7442623,11.7073171 L26.2032787,11.7073171 L26.2032787,19.4341463 C26.2032787,19.9804878 26.3606557,20.4487805 26.5967213,20.8390244 C26.9114754,21.2292683 27.2262295,21.3853659 27.7770492,21.3853659 C28.0918033,21.3853659 28.4065574,21.3073171 28.7213115,21.2292683 C29.0360656,21.1512195 29.2721311,20.995122 29.3508197,20.8390244 L30.295082,24.2731707 C29.4295082,24.9756098 28.1704918,25.3658537 26.5180328,25.3658537 C24.9442623,25.3658537 23.6852459,24.9756098 22.8983607,24.195122 C22.0327869,23.4146341 21.6393443,22.2439024 21.6393443,20.6829268 L21.6393443,11.7073171 L18.8065574,11.7073171 Z" id="path58"></path>
                <path d="M30.9245902,11.7073171 L30.9245902,7.80487805 L33.757377,7.80487805 L33.757377,3.12195122 L38.3213115,3.12195122 L38.3213115,7.80487805 L41.8622951,7.80487805 L41.8622951,11.7073171 L38.3213115,11.7073171 L38.3213115,19.4341463 C38.3213115,19.9804878 38.4786885,20.4487805 38.7147541,20.8390244 C39.0295082,21.2292683 39.3442623,21.3853659 39.895082,21.3853659 C40.2098361,21.3853659 40.5245902,21.3073171 40.8393443,21.2292683 C41.1540984,21.1512195 41.3901639,20.995122 41.4688525,20.8390244 L42.4131148,24.2731707 C41.547541,24.9756098 40.2885246,25.3658537 38.6360656,25.3658537 C37.0622951,25.3658537 35.8032787,24.9756098 35.0163934,24.195122 C34.1508197,23.4146341 33.757377,22.2439024 33.757377,20.6829268 L33.757377,11.7073171 L30.9245902,11.7073171 Z" id="path60"></path>
                <path d="M44.9311475,31.4536585 L44.9311475,7.72682927 L49.495082,7.72682927 L49.495082,9.91219512 C50.9114754,8.19512195 52.642623,7.33658537 54.8459016,7.33658537 C57.1278689,7.33658537 58.9377049,8.11707317 60.3540984,9.75609756 C61.7704918,11.3170732 62.4786885,13.5804878 62.4786885,16.3121951 C62.4786885,19.1219512 61.7704918,21.3073171 60.3540984,22.9463415 C58.9377049,24.5853659 57.1278689,25.3658537 54.8459016,25.3658537 C52.7213115,25.3658537 50.9114754,24.5073171 49.495082,22.7121951 L49.495082,31.4536585 L44.9311475,31.4536585 Z M49.495082,19.3560976 C49.8885246,19.902439 50.4393443,20.3707317 51.2262295,20.7609756 C51.9344262,21.1512195 52.7213115,21.3073171 53.4295082,21.3073171 C54.7672131,21.3073171 55.7901639,20.8390244 56.5770492,19.902439 C57.3639344,18.9658537 57.8360656,17.795122 57.8360656,16.3121951 C57.8360656,14.8292683 57.442623,13.6585366 56.5770492,12.7219512 C55.7901639,11.7853659 54.6885246,11.3170732 53.4295082,11.3170732 C52.7213115,11.3170732 51.9344262,11.4731707 51.2262295,11.8634146 C50.5180328,12.2536585 49.8885246,12.7219512 49.495082,13.2682927 L49.495082,19.3560976 Z" id="path62"></path>
                <path d="M66.0983607,12.097561 C65.547541,11.5512195 65.2327869,10.9268293 65.2327869,10.2243902 C65.2327869,9.52195122 65.547541,8.89756098 66.0983607,8.35121951 C66.6491803,7.80487805 67.357377,7.57073171 68.1442623,7.57073171 C68.9311475,7.57073171 69.5606557,7.80487805 70.1901639,8.35121951 C70.7409836,8.89756098 71.0557377,9.52195122 71.0557377,10.2243902 C71.0557377,10.9268293 70.7409836,11.5512195 70.1901639,12.097561 C69.6393443,12.6439024 68.9311475,12.8780488 68.1442623,12.8780488 C67.2786885,12.8780488 66.6491803,12.5658537 66.0983607,12.097561 Z M66.0983607,24.5073171 C65.547541,23.9609756 65.2327869,23.3365854 65.2327869,22.6341463 C65.2327869,21.9317073 65.547541,21.3073171 66.0983607,20.7609756 C66.6491803,20.2146341 67.357377,19.9804878 68.1442623,19.9804878 C68.9311475,19.9804878 69.5606557,20.2146341 70.1901639,20.7609756 C70.7409836,21.3073171 71.0557377,21.9317073 71.0557377,22.6341463 C71.0557377,23.3365854 70.7409836,23.9609756 70.1901639,24.5073171 C69.6393443,25.0536585 68.9311475,25.2878049 68.1442623,25.2878049 C67.2786885,25.2878049 66.6491803,25.0536585 66.0983607,24.5073171 Z" id="path64"></path>
                <polygon id="path66" points="72.3147541 25.6 80.8131148 0.468292683 84.1180328 0.468292683 75.6196721 25.6"></polygon>
                <polygon id="path68" points="84.1180328 25.6 92.6163934 0.468292683 95.9213115 0.468292683 87.4229508 25.6"></polygon>
            </g>
            <path d="M224.214337,352 L538.785663,352 C542.246813,352 545,349.265823 545,346 L545,346 C545,342.658228 542.16815,340 538.785663,340 L224.214337,340 C220.753187,340 218,342.734177 218,346 L218,346 C218,349.265823 220.753187,352 224.214337,352 Z" id="path72" fill="#E9F7FF" fill-rule="nonzero"></path>
            <path d="M303.416152,386 L460.583848,386 C463.028504,386 465,384.101266 465,381.746835 L465,378.253165 C465,375.898734 463.028504,374 460.583848,374 L303.416152,374 C300.971496,374 299,375.898734 299,378.253165 L299,381.746835 C299,384.101266 300.971496,386 303.416152,386 L303.416152,386 Z" id="path74" fill="#E9F7FF" fill-rule="nonzero"></path>
            <g id="g112" transform="translate(514.000000, 0.000000)" fill-rule="nonzero">
                <g id="g78" transform="translate(115.090090, 7.075301)" fill="#0B4870">
                    <path d="M21.204955,0.314457831 C23.8063063,3.69487952 30.2702703,4.40240964 34.527027,5.10993976 C38.7837838,5.81746988 43.1193694,6.05331325 47.0608108,7.70421687 C52.6576577,9.98403614 56.9932432,15.0153614 58.4121622,20.9114458 C59.8310811,26.8075301 58.0968468,33.2539157 54.0765766,37.7349398 C49.5045045,42.8448795 42.1734234,45.2033133 35.3153153,44.4957831 C28.4572072,43.788253 21.9932432,40.4864458 16.7905405,36.0054217 C11.5878378,31.5243976 7.48873874,25.8641566 3.86261261,19.9680723 C2.52252252,17.7668675 1.18243243,15.4870482 0.630630631,13.05 C0.0788288288,10.5343373 0.315315315,7.70421687 1.97072072,5.73885542 L21.204955,0.314457831 Z" id="path76"></path>
                </g>
                <path d="M42.3310811,236.393675 C42.3310811,236.393675 31.8468468,253.76747 25.8558559,257.934036 C24.9887387,258.484337 25.3040541,259.820783 26.25,260.056627 C32.0833333,261.628916 44.7747748,252.981325 45.9572072,250.622892 C47.2972973,247.95 54.0765766,249.286446 54.0765766,245.198494 C54.0765766,241.110542 51.3963964,233.013253 51.3963964,233.013253 L42.3310811,236.393675 Z" id="path80" fill="#FFBE55"></path>
                <path d="M21.0472973,213.988554 C21.0472973,213.988554 7.56756757,229.161145 0.945945946,232.148494 C0,232.541566 0,233.878012 0.945945946,234.271084 C6.38513514,236.865361 20.4166667,230.733434 22.0720721,228.610843 C23.8851351,226.173795 30.3490991,228.768072 31.0585586,224.758735 C31.768018,220.749398 30.6644144,212.259036 30.6644144,212.259036 L21.0472973,213.988554 Z" id="path82" fill="#FFBE55"></path>
                <path d="M122.184685,108.252108 L58.6486486,112.811747 L20.5743243,215.796687 L30.0337838,216.504217 C30.0337838,216.504217 69.6846847,162.574699 67.3198198,140.641265 C86.7905405,135.374096 160.416667,152.040361 151.43018,110.531928 C142.522523,69.023494 122.184685,108.252108 122.184685,108.252108 Z" id="path84" fill="#0A3B56"></path>
                <path d="M120.686937,113.75512 L65.4279279,130.657229 L42.0157658,237.887349 L51.4752252,237.337048 C51.4752252,237.337048 83.2432432,178.454819 77.8828829,157.071687 C96.4864865,149.131627 171.689189,155.499398 157.027027,115.641867 C142.364865,75.7843373 120.686937,113.75512 120.686937,113.75512 L120.686937,113.75512 Z" id="path86" fill="#0B4870"></path>
                <path d="M123.445946,35.2192771 C116.981982,35.2192771 113.592342,49.3698795 108.38964,63.9921687 C103.186937,78.4572289 92.7027027,90.485241 79.1441441,97.875 L71.3400901,102.120181 L77.7252252,107.859036 C77.7252252,107.859036 105.709459,97.4819277 116.114865,79.8722892 C125.653153,63.5204819 123.445946,35.2192771 123.445946,35.2192771 Z" id="path88" fill="#FFBE55"></path>
                <path d="M122.184685,35.376506 C130.855856,34.5903614 144.256757,28.7728916 150.326577,37.1060241 C156.396396,45.4391566 163.490991,100.469277 154.346847,112.34006 C142.207207,113.519277 108.783784,114.698494 109.808559,112.34006 C112.882883,107.544578 119.898649,89.6204819 116.903153,80.1081325 C113.907658,70.5957831 108.783784,64.5424699 116.903153,55.0301205 C118.952703,44.2599398 122.184685,35.376506 122.184685,35.376506 L122.184685,35.376506 Z" id="path90" fill="#FFBE55"></path>
                <path d="M142.916667,33.8042169 C130.855856,31.5243976 136.216216,89.3060241 130.461712,94.2587349 C124.707207,99.1328313 92.2297297,112.182831 85.4504505,112.182831 C89.5495495,116.270783 94.9887387,118.943675 94.9887387,118.943675 C94.9887387,118.943675 134.245495,111.318072 139.684685,105.893675 C145.123874,100.469277 157.342342,61.9481928 156.002252,56.838253 C154.662162,51.7283133 155.686937,36.2412651 142.916667,33.8042169 L142.916667,33.8042169 Z" id="path92" fill="#FFBE55"></path>
                <path d="M112.488739,130.342771 L35.2364865,130.342771 C34.4481982,130.342771 33.8175676,129.713855 33.8175676,128.927711 L33.8175676,126.412048 C33.8175676,125.625904 34.4481982,124.996988 35.2364865,124.996988 L112.488739,124.996988 C113.277027,124.996988 113.907658,125.625904 113.907658,126.412048 L113.907658,128.927711 C113.907658,129.713855 113.277027,130.342771 112.488739,130.342771 Z" id="path94" fill="#A2DFF9"></path>
                <path d="M103.975225,127.512651 L36.8918919,127.512651 C35.1576577,127.512651 33.7387387,126.09759 33.7387387,124.368072 L25.8558559,77.5924699 C25.8558559,75.8629518 27.2747748,74.4478916 29.009009,74.4478916 L96.0923423,74.4478916 C97.8265766,74.4478916 99.2454955,75.8629518 99.2454955,77.5924699 L107.128378,124.368072 C107.128378,126.09759 105.709459,127.512651 103.975225,127.512651 Z" id="path96" fill="#E9F7FF"></path>
                <ellipse id="ellipse98" fill="#FFBE55" transform="translate(61.095417, 104.563479) rotate(-20.248911) translate(-61.095417, -104.563479) " cx="61.0954167" cy="104.563479" rx="6.69828802" ry="9.43683924"></ellipse>
                <polygon id="polygon100" fill="#E2A881" points="130.619369 34.511747 130.619369 22.1692771 137.398649 22.1692771 137.398649 34.511747 126.914414 42.4518072"></polygon>
                <g id="g104" transform="translate(115.090090, 3.930723)" fill="#0B4870">
                    <path d="M5.67567568,0.550301205 C3.94144144,0.235843373 2.04954955,1.17921687 1.1036036,2.67289157 C0.157657658,4.16656627 8.95117314e-14,6.13192771 0.551801802,7.78283133 C1.1036036,9.43373494 2.36486486,10.8487952 3.86261261,11.8707831 C4.0990991,12.028012 4.33558559,12.185241 4.57207207,12.1066265 C4.88738739,12.028012 5.04504505,11.6349398 5.12387387,11.3204819 C5.59684685,9.66957831 6.06981982,7.94006024 6.46396396,6.28915663 C6.77927928,5.26716867 7.01576577,4.16656627 6.85810811,3.06596386 C6.70045045,1.96536145 5.99099099,0.943373494 4.96621622,0.628915663" id="path102"></path>
                </g>
                <path d="M138.738739,10.2198795 C142.443694,22.1692771 135.822072,27.3578313 130.067568,29.0873494 C124.391892,30.8168675 119.81982,22.1692771 118.085586,16.5090361 C116.351351,10.8487952 119.583333,4.87409639 125.259009,3.06596386 C130.934685,1.41506024 137.004505,4.55963855 138.738739,10.2198795 Z" id="path106" fill="#EFB68F"></path>
                <g id="g110" transform="translate(116.666667, 0.000000)" fill="#0B4870">
                    <path d="M0.394144144,9.04066265 C3.62612613,13.2072289 12.9279279,12.4996988 17.1846847,14.4650602 C21.4414414,16.4304217 21.0472973,18.6316265 25.4617117,19.7322289 C26.4076577,19.9680723 27.5112613,20.1253012 28.0630631,19.2605422 C28.4572072,18.553012 28.2995495,17.5310241 28.0630631,16.6662651 C26.4864865,10.4557229 22.9391892,4.24518072 17.972973,1.72951807 C15.0563063,0.235843373 11.981982,0.157228916 8.90765766,0.0786144578 C6.85810811,-8.93798924e-14 4.72972973,-8.93798924e-14 2.9954955,1.10060241 C1.26126126,2.20120482 -0.315315315,6.60361446 0.394144144,9.04066265" id="path108"></path>
                </g>
            </g>
            <g id="text123" transform="translate(288.000000, 277.000000)" fill="#0B4870" fill-rule="nonzero">
                <path d="M9.47575515,18.984991 C8.67556444,21.00112 7.89589273,22.3166426 7.13674,22.9315587 C6.37758202,23.54648 5.36195636,23.8539406 4.08986303,23.8539406 L1.82779212,23.8539406 L1.82779212,21.5253135 L3.48972,21.5253135 C4.26939434,21.5253135 4.87466646,21.3438606 5.30553636,20.9809548 C5.73640626,20.6180542 6.21344061,19.7612 6.73663939,18.4103923 L7.24445879,17.1402348 L0.273575152,0.476926452 L3.27428242,0.476926452 L8.66017455,13.7228903 L14.0460667,0.476926452 L17.0467739,0.476926452 L9.47575515,18.984991 Z" id="path1072"></path>
                <path d="M27.6338952,2.42753032 C26.1155897,2.42753032 24.9153063,3.01220645 24.0330448,4.18155871 C23.1507834,5.34083613 22.7096527,6.93357935 22.7096527,8.95978839 C22.7096527,10.9859974 23.1456543,12.5837806 24.0176576,13.7531381 C24.899919,14.9124103 26.1053315,15.4920465 27.6338952,15.4920465 C29.1419477,15.4920465 30.337102,14.9073677 31.2193582,13.7380103 C32.1016196,12.5686581 32.5427503,10.9759174 32.5427503,8.95978839 C32.5427503,6.95373935 32.1016196,5.36603871 31.2193582,4.19668645 C30.337102,3.01724903 29.1419477,2.42753032 27.6338952,2.42753032 Z M27.6338952,0.0686554839 C30.0960164,0.0686554839 32.0298071,0.854947097 33.4352673,2.42753032 C34.8407275,4.00010839 35.5434576,6.17752774 35.5434576,8.95978839 C35.5434576,11.7319639 34.8407275,13.9093832 33.4352673,15.4920465 C32.0298071,17.0646245 30.0960164,17.8509135 27.6338952,17.8509135 C25.1615158,17.8509135 23.222596,17.0646245 21.8171358,15.4920465 C20.4219337,13.9093832 19.7243327,11.7319639 19.7243327,8.95978839 C19.7243327,6.17752774 20.4219337,4.00010839 21.8171358,2.42753032 C23.222596,0.854947097 25.1615158,0.0686554839 27.6338952,0.0686554839 Z" id="path1074"></path>
                <path d="M39.9291139,10.7289445 L39.9291139,0.476926452 L42.7605533,0.476926452 L42.7605533,10.6230968 C42.7605533,12.22592 43.078578,13.4305574 43.7146273,14.237009 C44.3506766,15.0333755 45.3047479,15.4315587 46.5768412,15.4315587 C48.1054101,15.4315587 49.3108226,14.9527303 50.1930788,13.9950735 C51.0855984,13.0374116 51.5318582,11.7319665 51.5318582,10.0787381 L51.5318582,0.476926452 L54.3632976,0.476926452 L54.3632976,17.4124103 L51.5318582,17.4124103 L51.5318582,14.8116 C50.844518,15.8398271 50.0443299,16.6059561 49.1312939,17.1099871 C48.2285162,17.6039381 47.1769842,17.8509135 45.9766982,17.8509135 C43.996743,17.8509135 42.4938248,17.2460748 41.4679436,16.0363974 C40.4420572,14.82672 39.9291139,13.057569 39.9291139,10.7289445 Z" id="path1076"></path>
                <path d="M70.2132048,3.07772903 C69.8951802,2.89627871 69.546381,2.76523097 69.1668073,2.68458581 C68.7974865,2.59386065 68.3871329,2.54849806 67.9357467,2.54849806 C66.3353653,2.54849806 65.1043046,3.06261161 64.2425648,4.09083871 C63.391078,5.10898065 62.9653345,6.57571355 62.9653345,8.49103742 L62.9653345,17.4124103 L60.1185079,17.4124103 L60.1185079,0.476926452 L62.9653345,0.476926452 L62.9653345,3.10797677 C63.5603459,2.07974968 64.3348885,1.31866065 65.2889624,0.824709677 C66.2430364,0.320673548 67.4022844,0.0686554839 68.7667067,0.0686554839 C68.9616279,0.0686554839 69.1770655,0.0837780645 69.4130194,0.114023226 C69.6489681,0.134203871 69.9105675,0.169486452 70.1978176,0.219870968 L70.2132048,3.07772903 Z" id="path1078"></path>
                <path d="M86.9864036,7.19063226 L86.9864036,17.4124103 L84.1549642,17.4124103 L84.1549642,7.28136 C84.1549642,5.67853677 83.8369422,4.47893935 83.2008982,3.68256774 C82.5648489,2.88619613 81.6107749,2.48801032 80.3386764,2.48801032 C78.8101127,2.48801032 77.6047002,2.96684129 76.7224388,3.92450323 C75.8401774,4.88216516 75.3990467,6.18761032 75.3990467,7.84083871 L75.3990467,17.4124103 L72.55222,17.4124103 L72.55222,0.476926452 L75.3990467,0.476926452 L75.3990467,3.10797677 C76.0761287,2.08982968 76.8711903,1.32874065 77.7842315,0.824709677 C78.7075257,0.320673548 79.7693131,0.0686554839 80.9695939,0.0686554839 C82.9495543,0.0686554839 84.4473461,0.673494194 85.4629691,1.88317161 C86.4785921,3.08276903 86.9864036,4.85192258 86.9864036,7.19063226 L86.9864036,7.19063226 Z" id="path1080"></path>
                <path d="M100.497296,8.89930065 C98.2095741,8.89930065 96.6245826,9.15635871 95.7423212,9.67047484 C94.8600651,10.1845858 94.418937,11.0616026 94.418937,12.3015252 C94.418937,13.2894271 94.7472198,14.0757161 95.4037855,14.6603923 C96.0706093,15.2349884 96.9733871,15.5222865 98.1121188,15.5222865 C99.6817204,15.5222865 100.938426,14.9779329 101.882237,13.8892258 C102.836311,12.7904335 103.313348,11.3337806 103.313348,9.5192671 L103.313348,8.89930065 L100.497296,8.89930065 Z M106.144787,7.75011097 L106.144787,17.4124103 L103.313348,17.4124103 L103.313348,14.8418477 C102.66704,15.8700697 101.861721,16.6311561 100.897388,17.1251071 C99.9330616,17.6089781 98.7532972,17.8509135 97.3580952,17.8509135 C95.5935723,17.8509135 94.1881095,17.3670426 93.1417067,16.3993006 C92.1055673,15.4214787 91.5874976,14.1160361 91.5874976,12.4829729 C91.5874976,10.577729 92.2338024,9.14123613 93.5264121,8.17349419 C94.8292853,7.20575226 96.7682077,6.72188129 99.3431794,6.72188129 L103.313348,6.72188129 L103.313348,6.44970581 C103.313348,5.16946323 102.882475,4.18156129 102.02073,3.486 C101.169249,2.78035355 99.9689653,2.42753032 98.41988,2.42753032 C97.4350315,2.42753032 96.4758311,2.54345806 95.5422788,2.77531355 C94.6087212,3.00716903 93.7110725,3.35494968 92.8493327,3.81865548 L92.8493327,1.2480929 C93.8854774,0.854947097 94.8908422,0.562609032 95.8654273,0.37107871 C96.8400176,0.169463226 97.7889624,0.0686554839 98.7122618,0.0686554839 C101.205158,0.0686554839 103.067136,0.703736774 104.298196,1.97389935 C105.529257,3.24406194 106.144787,5.16946581 106.144787,7.75011097 L106.144787,7.75011097 Z" id="path1082"></path>
                <path d="M125.410882,3.72793548 C126.118744,2.4779329 126.965099,1.55555355 127.949947,0.960797419 C128.934796,0.366036129 130.094044,0.0686554839 131.427692,0.0686554839 C133.222989,0.0686554839 134.607933,0.688616774 135.582523,1.92853935 C136.557113,3.15837677 137.044408,4.91240774 137.044408,7.19063226 L137.044408,17.4124103 L134.197582,17.4124103 L134.197582,7.28136 C134.197582,5.65837677 133.905205,4.45373935 133.320452,3.66744774 C132.735699,2.88115613 131.843179,2.48801032 130.642893,2.48801032 C129.175879,2.48801032 128.016631,2.96684129 127.165149,3.92450323 C126.313662,4.88216516 125.887919,6.18761032 125.887919,7.84083871 L125.887919,17.4124103 L123.041092,17.4124103 L123.041092,7.28136 C123.041092,5.64829677 122.748716,4.44365935 122.163962,3.66744774 C121.579209,2.88115613 120.676432,2.48801032 119.455629,2.48801032 C118.009131,2.48801032 116.860141,2.97188129 116.008659,3.93962323 C115.157178,4.89728516 114.731437,6.19769032 114.731437,7.84083871 L114.731437,17.4124103 L111.88461,17.4124103 L111.88461,0.476926452 L114.731437,0.476926452 L114.731437,3.10797677 C115.377744,2.06966968 116.152287,1.30354065 117.055065,0.809589677 C117.957843,0.315633548 119.029891,0.0686554839 120.27121,0.0686554839 C121.522787,0.0686554839 122.584577,0.381156129 123.45658,1.00615742 C124.338836,1.63115871 124.99027,2.53841806 125.410882,3.72793548 L125.410882,3.72793548 Z" id="path1084"></path>
                <path d="M157.44924,8.24910194 L157.44924,9.6099871 L144.430772,9.6099871 C144.553876,11.525311 145.138629,12.9870065 146.185032,13.9950735 C147.241693,14.9930555 148.708707,15.4920465 150.586075,15.4920465 C151.673511,15.4920465 152.725043,15.3609987 153.740671,15.0989032 C154.766552,14.8368026 155.782175,14.4436568 156.78754,13.9194658 L156.78754,16.5505161 C155.771917,16.9739019 154.730646,17.2964826 153.663727,17.5182581 C152.596807,17.7400284 151.514501,17.8509135 150.416807,17.8509135 C147.667436,17.8509135 145.487431,17.0646245 143.876791,15.4920465 C142.276415,13.9194632 141.476227,11.7924465 141.476227,9.11099613 C141.476227,6.33882065 142.235379,4.14124129 143.753685,2.51825806 C145.282254,0.885189677 147.339153,0.0686554839 149.924383,0.0686554839 C152.242879,0.0686554839 154.07408,0.804544516 155.417986,2.27632258 C156.772155,3.73801548 157.44924,5.72894194 157.44924,8.24910194 L157.44924,8.24910194 Z M154.617801,7.43256774 C154.597263,5.91038968 154.161262,4.69567226 153.309796,3.78841548 C152.468572,2.88115871 151.35036,2.42753032 149.955158,2.42753032 C148.375298,2.42753032 147.108331,2.86603871 146.154257,3.74305548 C145.210441,4.62007226 144.666723,5.85494968 144.523104,7.44768774 L154.617801,7.43256774 Z" id="path1086"></path>
                <polygon id="path1088" points="162.496588 13.5716826 165.743508 13.5716826 165.743508 17.4124103 162.496588 17.4124103"></polygon>
                <path d="M184.532573,1.12712516 L184.532573,3.72793548 C183.732383,3.29446452 182.927063,2.97188387 182.116614,2.76019355 C181.316423,2.53841806 180.505974,2.42753032 179.685267,2.42753032 C177.848937,2.42753032 176.422961,3.00212645 175.407338,4.15131871 C174.391709,5.29043097 173.883895,6.89325419 173.883895,8.95978839 C173.883895,11.0263226 174.391709,12.6341858 175.407338,13.7833781 C176.422961,14.9224903 177.848937,15.4920465 179.685267,15.4920465 C180.505974,15.4920465 181.316423,15.3861987 182.116614,15.1745032 C182.927063,14.9527329 183.732383,14.6251123 184.532573,14.1916413 L184.532573,16.7622039 C183.742641,17.1251097 182.921934,17.3972877 182.070452,17.5787381 C181.229223,17.7601884 180.331575,17.8509135 179.377506,17.8509135 C176.782018,17.8509135 174.719992,17.0495045 173.191428,15.4466865 C171.66286,13.8438632 170.898575,11.6815639 170.898575,8.95978839 C170.898575,6.1976929 171.667989,4.02531355 173.206816,2.44265032 C174.755901,0.859987097 176.874349,0.0686554839 179.562161,0.0686554839 C180.434164,0.0686554839 181.285649,0.159383226 182.116614,0.34083871 C182.947579,0.512209032 183.752899,0.774304516 184.532573,1.12712516 L184.532573,1.12712516 Z" id="path1090"></path>
                <path d="M196.166092,2.42753032 C194.647787,2.42753032 193.447503,3.01220645 192.565242,4.18155871 C191.68298,5.34083613 191.24185,6.93357935 191.24185,8.95978839 C191.24185,10.9859974 191.677851,12.5837806 192.549855,13.7531381 C193.432116,14.9124103 194.637528,15.4920465 196.166092,15.4920465 C197.674145,15.4920465 198.869299,14.9073677 199.751555,13.7380103 C200.633817,12.5686581 201.074947,10.9759174 201.074947,8.95978839 C201.074947,6.95373935 200.633817,5.36603871 199.751555,4.19668645 C198.869299,3.01724903 197.674145,2.42753032 196.166092,2.42753032 Z M196.166092,0.0686554839 C198.628213,0.0686554839 200.562004,0.854947097 201.967464,2.42753032 C203.372924,4.00010839 204.075655,6.17752774 204.075655,8.95978839 C204.075655,11.7319639 203.372924,13.9093832 201.967464,15.4920465 C200.562004,17.0646245 198.628213,17.8509135 196.166092,17.8509135 C193.693713,17.8509135 191.754793,17.0646245 190.349333,15.4920465 C188.954131,13.9093832 188.25653,11.7319639 188.25653,8.95978839 C188.25653,6.17752774 188.954131,4.00010839 190.349333,2.42753032 C191.754793,0.854947097 193.693713,0.0686554839 196.166092,0.0686554839 Z" id="path1092"></path>
                <path d="M222.172245,3.72793548 C222.880107,2.4779329 223.726462,1.55555355 224.711311,0.960797419 C225.696159,0.366036129 226.855407,0.0686554839 228.189055,0.0686554839 C229.984353,0.0686554839 231.369296,0.688616774 232.343887,1.92853935 C233.318477,3.15837677 233.805772,4.91240774 233.805772,7.19063226 L233.805772,17.4124103 L230.958945,17.4124103 L230.958945,7.28136 C230.958945,5.65837677 230.666569,4.45373935 230.081816,3.66744774 C229.497063,2.88115613 228.604543,2.48801032 227.404257,2.48801032 C225.937242,2.48801032 224.777994,2.96684129 223.926513,3.92450323 C223.075026,4.88216516 222.649282,6.18761032 222.649282,7.84083871 L222.649282,17.4124103 L219.802456,17.4124103 L219.802456,7.28136 C219.802456,5.64829677 219.510079,4.44365935 218.925326,3.66744774 C218.340573,2.88115613 217.437795,2.48801032 216.216993,2.48801032 C214.770495,2.48801032 213.621505,2.97188129 212.770023,3.93962323 C211.918541,4.89728516 211.492801,6.19769032 211.492801,7.84083871 L211.492801,17.4124103 L208.645974,17.4124103 L208.645974,0.476926452 L211.492801,0.476926452 L211.492801,3.10797677 C212.139108,2.06966968 212.913651,1.30354065 213.816428,0.809589677 C214.719206,0.315633548 215.791255,0.0686554839 217.032573,0.0686554839 C218.28415,0.0686554839 219.34594,0.381156129 220.217944,1.00615742 C221.1002,1.63115871 221.751634,2.53841806 222.172245,3.72793548 L222.172245,3.72793548 Z" id="path1094"></path>
            </g>
        </g>
    </g>
</svg>