<?xml version="1.0" encoding="UTF-8"?>
<svg width="1200px" height="650px" viewBox="0 0 1200 650" version="1.1" xmlns="http://www.w3.org/2000/svg" xmlns:xlink="http://www.w3.org/1999/xlink">
    <title>django-redis-banner</title>
    <g id="django-redis-banner" stroke="none" stroke-width="1" fill="none" fill-rule="evenodd">
        <rect fill="#092E20" x="0" y="0" width="1200" height="650"></rect>
        <g id="Group-2" transform="translate(260.000000, 92.000000)">
            <text id="Django" font-family="LucidaGrande-Bold, Lucida Grande" font-size="174" font-weight="bold" fill="#FEFEFE">
                <tspan x="21.3017578" y="168">Django</tspan>
            </text>
            <g id="Group" transform="translate(0.000000, 235.000000)" fill-rule="nonzero">
                <g id="iconfinder_MySQL_1012821" transform="translate(209.000000, 0.000000)">
                    <path d="M0,213.340267 L12.7772277,213.340267 L12.7772277,162.760754 L32.8242574,206.742939 C35.0272277,212.020802 38.3316832,214 44.720297,214 C51.1089109,214 53.9727723,212.020802 56.3960396,206.742939 L76.2227723,162.760754 L76.2227723,213.340267 L89,213.340267 L89,162.760754 C89,157.922714 87.0173267,155.503694 82.8316832,154.184228 C73.1386139,151.325386 66.529703,153.744406 63.6658416,160.341734 L44.279703,203.884097 L25.3341584,160.341734 C22.470297,153.744406 15.8613861,151.325386 6.16831683,154.184228 C1.98267327,155.503694 0,157.702803 0,162.760754 L0,213.340267 L0,213.340267 Z" id="Path" fill="#00678F"></path>
                    <path d="M101,171.223048 L113.772563,171.223048 L113.772563,199.327138 C113.772563,200.888476 114.212996,204.457249 121.259928,204.680297 C125.00361,204.680297 149.00722,204.680297 149.227437,204.680297 L149.227437,171 L162,171 C162,171 162,216.947955 162,217.171004 C162,228.546468 148.126354,231 141.740072,231 L101.440433,231 L101.440433,222.301115 C101.440433,222.301115 141.960289,222.301115 141.960289,222.301115 C150.108303,221.408922 149.227437,217.171004 149.227437,215.832714 L149.227437,212.486989 L121.920578,212.486989 C109.148014,212.486989 101,206.687732 101,200.219331 C101,199.550186 101.440433,171.446097 101,171.223048 L101,171.223048 Z" id="Path" fill="#00678F"></path>
                    <path d="M457.369652,132.164152 C447.74823,131.898153 440.532163,132.962149 434.117882,135.35614 C432.24705,136.154137 429.574433,136.154137 429.307171,138.282128 C430.376218,139.346124 430.376218,140.676119 431.178003,142.006114 C432.514312,144.400104 435.186929,147.592092 437.325023,149.188086 C439.730378,151.050078 442.402995,152.912071 445.075613,154.774064 C449.619062,157.700052 454.964297,159.296046 459.507746,162.222034 C462.180363,163.818028 464.85298,165.94602 467.258336,167.808013 C468.594644,168.872008 469.39643,170.202003 471,171 C471,171 471,170.734001 471,170.734001 C470.198215,169.670005 469.930953,168.074011 469.129168,167.010016 C468.060121,165.94602 466.723812,164.882024 465.654766,163.552029 C462.180363,159.030047 457.904175,154.774064 453.360726,151.582076 C449.619062,148.922087 441.066687,145.4641 439.730378,140.942118 C439.730378,140.942118 439.730378,140.942118 439.463116,140.676119 C442.135734,140.41012 445.075613,139.612123 447.74823,138.814126 C451.757156,137.75013 455.49882,138.016129 459.775008,136.952133 C461.64584,136.420136 463.516672,135.888138 465.387504,135.35614 C465.387504,135.090141 465.387504,134.558143 465.387504,134.292144 C463.24941,132.164152 461.64584,129.238164 459.507746,127.376171 C453.360726,122.056192 446.679183,117.002212 439.730378,112.746228 C435.988714,110.352238 431.178003,108.756244 427.436339,106.894251 C426.10003,106.096254 423.694675,105.830255 422.89289,104.76626 C420.754796,102.10627 419.418487,98.6482836 418.082178,95.7222951 C414.607776,89.0723212 411.400635,81.8903493 408.193495,74.9743765 C406.055401,70.4523942 404.719092,65.6644129 402.046475,61.4084296 C389.752436,41.1925089 376.389349,28.9565569 355.810197,16.9866038 C351.266747,14.5926132 346.188774,13.5286173 340.576278,12.1986226 C337.636399,12.1986226 334.69652,11.9326236 331.756641,11.6666246 C329.885809,10.8686278 328.014977,8.47463715 326.144145,7.41064132 C319.462602,3.15465801 301.823328,-6.1553055 296.745355,6.08064654 C293.538215,13.7946163 301.556066,21.5085861 304.228684,25.2325715 C306.366777,27.892561 308.772133,31.0845485 310.375703,34.010537 C311.177488,36.1385287 311.44475,38.2665204 312.246535,40.394512 C314.117367,45.7144912 315.9882,51.3004693 318.393555,56.3544494 C319.729864,58.7484401 321.066172,61.4084296 322.937004,63.8024202 C324.006051,65.132415 325.609622,65.6644129 325.876883,67.7924046 C324.273313,70.1863952 324.006051,73.6443817 323.204266,76.5703702 C318.928079,89.8703181 320.531649,106.628252 326.678669,116.470214 C328.549501,119.396202 333.09295,126.046176 339.23997,123.386187 C344.585204,121.258195 343.516157,114.608221 344.852466,108.490245 C345.119728,107.16025 344.852466,106.096254 345.654251,105.298258 C345.654251,105.298258 345.654251,105.564257 345.654251,105.564257 C347.257821,108.756244 348.861392,112.21423 350.464962,115.406218 C354.206626,121.258195 360.620908,127.376171 365.966142,131.366155 C368.906021,133.494147 371.044115,137.218132 374.785779,138.548127 C374.785779,138.548127 374.785779,138.282128 374.785779,138.282128 C374.785779,138.282128 374.785779,138.282128 374.518517,138.282128 C373.716732,137.218132 372.647685,136.686135 371.8459,135.888138 C369.707806,133.760146 367.302451,131.100156 365.69888,128.706166 C360.620908,122.056192 356.34472,114.608221 352.335794,107.16025 C350.464962,103.436265 348.861392,99.4462805 347.257821,95.7222951 C346.456036,94.3923003 346.456036,92.2643087 345.386989,91.4663118 C343.516157,94.1263014 340.84354,96.254293 339.774493,99.4462805 C337.636399,104.500261 337.369138,110.884236 336.567352,117.268211 C336.032829,117.268211 336.300091,117.268211 336.032829,117.53421 C332.291165,116.470214 330.954856,112.746228 329.351286,109.288242 C325.876883,100.776275 325.075098,87.2103285 328.282239,77.634366 C329.084024,75.2403754 332.825688,67.2604067 331.222118,64.8664161 C330.420333,62.7384244 328.014977,61.4084296 326.678669,59.5464369 C325.075098,57.4184453 323.471528,54.4924567 322.402481,51.8324672 C319.462602,45.1824932 318.126293,37.7345224 314.919153,31.0845485 C313.582844,27.892561 310.910227,24.7005735 309.039395,22.040584 C306.901301,18.8485965 304.228684,16.4546059 302.357852,12.7306205 C301.823328,11.4006257 301.021543,9.27263402 301.823328,7.94263924 C302.09059,6.87864341 302.625113,6.61264445 303.426898,6.34664549 C305.030469,5.01665071 309.306656,6.61264445 310.910227,7.41064132 C315.453676,9.27263402 318.928079,10.8686278 322.669743,13.2626184 C324.273313,14.3266142 326.144145,16.7206048 328.282239,17.2526027 C329.084024,17.2526027 329.885809,17.2526027 330.687594,17.2526027 C334.429259,18.0505996 338.705446,17.5186017 342.44711,18.5825975 C348.861392,20.7105892 354.473888,23.6365777 359.551861,26.8285652 C375.053041,36.6705266 388.148865,50.7684713 396.70124,67.5264056 C398.037549,70.1863952 398.839334,72.8463848 399.908381,75.5063744 C402.313737,81.3583514 405.520877,87.2103285 407.926233,93.0623055 C410.331588,98.6482836 412.736944,104.234262 416.478608,109.022243 C418.34944,111.416234 425.298245,112.746228 428.772647,114.076223 C431.178003,115.140219 434.919667,116.204215 437.057761,117.268211 C441.066687,119.662201 445.075613,122.58819 449.084539,125.248179 C450.955371,126.844173 457.10239,129.770162 457.369652,132.164152 L457.369652,132.164152 Z" id="Path" fill="#FEFEFE"></path>
                    <path d="M341.628571,34 C339.571429,34 338.285714,34.2380952 337,34.4761905 C337,34.4761905 337,34.4761905 337,34.7142857 C337,34.7142857 337,34.7142857 337.257143,34.7142857 C338.285714,36.3809524 339.828571,37.5714286 340.857143,39 C341.885714,40.6666667 342.657143,42.3333333 343.428571,44 C343.428571,44 343.685714,43.7619048 343.685714,43.7619048 C345.228571,42.8095238 346,40.9047619 346,38.5238095 C345.228571,37.8095238 345.228571,37.0952381 344.714286,36.3809524 C343.942857,35.1904762 342.4,34.7142857 341.628571,34 L341.628571,34 Z" id="Path" fill="#FEFEFE"></path>
                    <path d="M173,213 L209.689655,213 C214.057471,213 217.988506,212.104478 221.482759,210.537313 C226.942529,207.850746 229.563218,204.492537 229.563218,199.791045 L229.563218,190.164179 C229.563218,186.358209 226.505747,183 220.609195,180.537313 C217.551724,179.41791 213.62069,178.746269 209.689655,178.746269 L194.402299,178.746269 C189.16092,178.746269 186.758621,177.179104 186.103448,173.597015 C186.103448,173.149254 186.103448,172.701493 186.103448,172.477612 L186.103448,166.656716 C186.103448,166.432836 186.103448,165.985075 186.103448,165.537313 C186.758621,162.850746 188.068966,162.179104 192.655172,161.731343 C193.091954,161.731343 193.528736,161.731343 193.747126,161.731343 L230,161.731343 L230,153 L194.402299,153 C189.16092,153 186.54023,153.223881 184.137931,154.119403 C176.712644,156.58209 173.218391,160.38806 173.218391,167.104478 L173.218391,174.268657 C173.218391,180.089552 179.551724,185.238806 190.471264,186.358209 C191.563218,186.358209 192.873563,186.358209 194.183908,186.358209 L207.287356,186.358209 C207.724138,186.358209 208.16092,186.358209 208.597701,186.358209 C212.528736,186.80597 214.275862,187.477612 215.586207,189.044776 C216.45977,189.940299 216.45977,190.61194 216.45977,191.507463 L216.45977,199.119403 C216.45977,200.014925 215.804598,201.134328 214.712644,202.253731 C213.62069,203.373134 211.655172,204.044776 209.252874,204.044776 C208.816092,204.044776 208.37931,204.044776 207.942529,204.044776 L173,204.044776 L173,213 L173,213 Z" id="Path" fill="#E38D1A"></path>
                    <path d="M311,198 C311,206.955224 317.602317,211.880597 330.80695,212.776119 C332.127413,212.776119 333.227799,213 334.548263,213 L368,213 L368,204.268657 L334.328185,204.268657 C326.84556,204.268657 323.984556,202.477612 323.984556,197.776119 L323.984556,153 L311.220077,153 L311,198 L311,198 Z" id="Path" fill="#E38D1A"></path>
                    <path d="M238,199.253247 L238,168.337662 C238,160.496753 243.573248,155.568182 254.496815,154.224026 C255.611465,154.224026 256.949045,154 258.063694,154 L282.808917,154 C284.146497,154 285.261146,154 286.598726,154.224026 C297.522293,155.792208 302.872611,160.496753 302.872611,168.337662 L302.872611,199.253247 C302.872611,205.75 300.643312,209.11039 295.292994,211.350649 L308,223 L293.063694,223 L282.808917,213.590909 L272.33121,214.262987 L258.509554,214.262987 C256.280255,214.262987 253.605096,214.038961 250.929936,213.366883 C242.012739,210.902597 238,206.422078 238,199.253247 L238,199.253247 Z M252.044586,198.581169 C252.044586,199.029221 252.267516,199.477273 252.267516,199.925325 C252.936306,203.50974 256.280255,205.525974 261.407643,205.525974 L273.22293,205.525974 L262.522293,195.668831 L277.458599,195.668831 L286.821656,204.181818 C288.605096,203.285714 289.719745,201.717532 290.165605,199.925325 C290.165605,199.477273 290.165605,199.029221 290.165605,198.581169 L290.165605,169.00974 C290.165605,168.561688 290.165605,168.113636 290.165605,167.88961 C289.496815,164.529221 286.152866,162.512987 281.025478,162.512987 L261.407643,162.512987 C255.611465,162.512987 251.821656,164.977273 251.821656,169.00974 L252.044586,198.581169 L252.044586,198.581169 Z" id="Shape" fill="#E38D1A"></path>
                    <path d="M374.541176,213 L376.235294,213 L376.235294,205.575 L378.564706,205.575 L378.564706,204 L372,204 L372,205.575 L374.541176,205.575 L374.541176,213 L374.541176,213 Z M388.305882,213 L390,213 L390,204.225 L387.458824,204.225 L385.341176,210.3 L383.011765,204.225 L380.470588,204.225 L380.470588,213 L382.164706,213 L382.164706,206.25 L382.164706,206.25 L384.494118,213 L385.764706,213 L388.094118,206.25 L388.094118,206.25 L388.305882,213 L388.305882,213 Z" id="Shape" fill="#E38D1A"></path>
                </g>
                <g id="iconfinder_Redis_Logo_202808" transform="translate(0.000000, 24.000000)">
                    <path d="M250.31414,45.15705 C250.31414,48.77605 247.34114,52.00605 243.46414,52.00605 C240.49114,52.00605 237.90714,52.78205 235.71014,54.46205 C233.25514,56.01405 231.31614,58.21005 229.76614,60.66505 C226.66414,64.80105 225.11514,69.71105 224.46814,71.51905 L224.46814,96.07305 C224.46814,99.82105 221.23814,102.92305 217.36114,102.92305 C213.61314,102.92305 210.51214,99.82105 210.51214,96.07305 L210.51214,45.15705 C210.51214,41.40905 213.61314,38.43705 217.36114,38.43705 C221.23814,38.43705 224.46814,41.41005 224.46814,45.15705 L224.46814,46.06205 C225.24314,45.15705 226.27714,44.12405 227.18214,43.47705 C231.44714,40.63505 237.00314,38.30805 243.46414,38.43705 C247.34114,38.43705 250.31414,41.41005 250.31414,45.15705 L250.31414,45.15705 Z" id="Path" fill="#D82C20"></path>
                    <path d="M246.52414,70.61705 C246.65414,53.04205 260.35214,38.31005 278.05514,38.31005 C294.85514,38.31005 308.16514,50.84505 309.20014,68.29005 L309.20014,68.93605 C309.20014,69.19505 309.20014,69.84005 309.07114,70.09905 C308.68214,73.20105 305.96914,75.26905 302.35014,75.26905 L261.25614,75.26905 C261.90214,78.24205 263.32314,81.60105 265.65014,83.79805 C268.36414,86.90005 273.53314,89.22405 278.05514,89.61205 C282.70714,89.99905 288.26414,88.83705 291.49514,86.38205 C294.20814,83.53805 299.50714,83.92705 301.18714,85.99305 C302.86714,87.80405 304.15914,91.68105 301.18714,94.39305 C294.85414,100.20705 287.23014,102.92205 278.05414,102.92205 C260.35214,102.79505 246.65414,88.19205 246.52414,70.61705 Z M260.61014,64.28505 L297.18114,64.28505 C295.88914,59.11605 289.29814,51.49205 278.05514,50.58705 C267.07214,51.10305 261.64414,58.98705 260.61014,64.28505 L260.61014,64.28505 Z" id="Shape" fill="#D82C20"></path>
                    <path d="M375.03414,95.94705 C375.03414,99.69505 371.93214,102.92605 368.05514,102.92605 C364.56614,102.92605 361.85314,100.47105 361.20614,97.36905 C356.29614,100.72805 350.09314,102.92605 343.63114,102.92605 C326.18614,102.92605 312.22914,88.19405 312.22914,70.74805 C312.22914,53.04305 326.18614,38.31105 343.63114,38.31105 C349.96414,38.31105 356.16614,40.37805 360.94714,43.73805 L360.94714,19.44405 C360.94714,15.69605 364.04914,12.46505 368.05414,12.46505 C371.93114,12.46505 375.03314,15.69605 375.03314,19.44405 L375.03314,70.61805 L375.03314,70.74805 L375.03314,95.94705 L375.03414,95.94705 Z M343.63214,52.39705 C338.98014,52.39705 334.71514,54.33505 331.48614,57.69505 C328.25514,60.92605 326.31614,65.57705 326.31614,70.74705 C326.31614,75.65705 328.25414,80.30905 331.48614,83.54005 C334.71514,86.90105 338.98014,88.83905 343.63214,88.83905 C348.41314,88.83905 352.54914,86.90105 355.77914,83.54005 C359.00914,80.31005 360.94814,75.65705 360.94814,70.74705 C360.94814,65.57705 359.01014,60.92605 355.77914,57.69505 C352.54914,54.33505 348.41314,52.39705 343.63214,52.39705 Z" id="Shape" fill="#FEFEFE"></path>
                    <path d="M399.62414,22.15705 C399.62414,26.03405 396.65214,29.26405 392.64514,29.26405 C388.76814,29.26405 385.66714,26.03405 385.66714,22.15705 L385.66714,19.44305 C385.66714,15.56605 388.76814,12.46405 392.64514,12.46405 C396.65214,12.46405 399.62414,15.56605 399.62414,19.44305 L399.62414,22.15705 Z M399.62414,45.54705 L399.62414,95.94605 C399.62414,99.82305 396.65214,102.92505 392.64514,102.92505 C388.76814,102.92505 385.66714,99.82305 385.66714,95.94605 L385.66714,45.54705 C385.66714,41.41205 388.76814,38.43905 392.64514,38.43905 C396.65314,38.43905 399.62414,41.41205 399.62414,45.54705 Z" id="Shape" fill="#FEFEFE"></path>
                    <path d="M408.50414,84.43705 C410.83014,81.33705 415.35414,80.94905 418.19614,83.40405 C421.55614,86.24805 427.37214,89.21805 432.41114,89.09005 C435.90014,89.09005 439.13114,87.92805 441.19914,86.63505 C443.00814,85.08405 443.52414,83.79305 443.52414,82.75805 C443.52414,82.11205 443.39514,81.85405 443.13714,81.46505 C443.00714,81.07805 442.49114,80.56105 441.45614,79.91605 C439.64714,78.62305 435.77014,77.20105 431.11814,76.29705 L430.98914,76.29705 C426.98214,75.52205 423.10514,74.48805 419.74614,72.93605 C416.25714,71.25705 413.15514,68.93105 410.82914,65.44205 C409.40814,63.11605 408.63314,60.27305 408.63314,57.30105 C408.63314,51.35605 411.99314,46.31605 416.25714,43.08505 C420.78014,39.98405 426.20814,38.30405 432.15314,38.30405 C441.06914,38.30405 447.40114,42.56905 451.53714,45.41105 C454.63914,47.47905 455.54314,51.74405 453.60414,54.97305 C451.53714,58.07505 447.27214,58.98005 444.04214,56.78305 C439.90714,54.07005 436.28814,52.00105 432.15314,52.00105 C428.92214,52.00105 426.07914,53.03505 424.39914,54.32705 C422.71914,55.49105 422.33214,56.65405 422.33214,57.30005 C422.33214,57.81605 422.33214,57.94605 422.59014,58.33305 C422.72014,58.59105 423.10714,59.10805 424.01214,59.62505 C425.69314,60.78805 429.05214,61.95105 433.44614,62.72705 L433.57514,62.85705 L433.70514,62.85705 C437.97014,63.63105 441.97614,64.79505 445.72314,66.60405 C449.21214,68.15505 452.70214,70.61005 454.89914,74.22805 C456.45014,76.81205 457.35414,79.78505 457.35414,82.75705 C457.35414,89.08905 453.86514,94.38805 449.21214,97.74705 C444.56014,100.97705 438.74414,102.91705 432.41214,102.91705 C422.33314,102.78805 414.57914,98.13605 409.41014,94.00105 C406.56614,91.67505 406.17914,87.28005 408.50414,84.43705 L408.50414,84.43705 Z" id="Path" fill="#FEFEFE"></path>
                    <path d="M163.44414,112.42705 C154.36614,117.15905 107.33814,136.49505 97.32614,141.71405 C87.31414,146.93505 81.75214,146.88405 73.84314,143.10305 C65.93414,139.32205 15.88814,119.10705 6.87314,114.79805 C2.36714,112.64405 -0.00186,110.82705 -0.00186,109.11005 L-0.00186,91.91505 C-0.00186,91.91505 65.15114,77.73105 75.67014,73.95805 C86.18814,70.18405 89.83714,70.04805 98.78814,73.32705 C107.74014,76.60605 161.26214,86.26305 170.10914,89.50305 C170.10914,89.50305 170.10514,104.86005 170.10514,106.45405 C170.10614,108.15405 168.06514,110.01905 163.44414,112.42705 L163.44414,112.42705 Z" id="Path" fill="#A41E11"></path>
                    <path d="M163.44414,95.22705 C154.36614,99.95705 107.33814,119.29505 97.32614,124.51405 C87.31414,129.73505 81.75214,129.68405 73.84314,125.90305 C65.93314,122.12405 15.88814,101.90505 6.87314,97.59805 C-2.14186,93.28905 -2.33086,90.32305 6.52514,86.85605 C15.38014,83.38705 65.15114,63.86005 75.67114,60.08605 C86.18914,56.31405 89.83814,56.17605 98.78914,59.45605 C107.74114,62.73505 154.48814,81.34205 163.33414,84.58205 C172.18214,87.82505 172.52214,90.49505 163.44414,95.22705 L163.44414,95.22705 Z" id="Path" fill="#D82C20"></path>
                    <path d="M163.44414,84.38705 C154.36614,89.11905 107.33814,108.45505 97.32614,113.67605 C87.31414,118.89505 81.75214,118.84405 73.84314,115.06305 C65.93314,111.28405 15.88814,91.06705 6.87314,86.75805 C2.36714,84.60405 -0.00186,82.78905 -0.00186,81.07205 L-0.00186,63.87505 C-0.00186,63.87505 65.15114,49.69205 75.67014,45.91805 C86.18814,42.14505 89.83714,42.00805 98.78814,45.28705 C107.74014,48.56605 161.26214,58.22105 170.10914,61.46205 C170.10914,61.46205 170.10514,76.81905 170.10514,78.41505 C170.10614,80.11405 168.06514,81.97905 163.44414,84.38705 L163.44414,84.38705 Z" id="Path" fill="#A41E11"></path>
                    <path d="M163.44414,67.18705 C154.36614,71.91905 107.33814,91.25505 97.32614,96.47605 C87.31414,101.69505 81.75214,101.64405 73.84314,97.86305 C65.93314,94.08405 15.88814,73.86605 6.87314,69.55805 C-2.14186,65.25005 -2.33086,62.28405 6.52514,58.81505 C15.38014,55.34805 65.15114,35.82005 75.67114,32.04705 C86.18914,28.27405 89.83814,28.13705 98.78914,31.41605 C107.74114,34.69505 154.48814,53.30105 163.33414,56.54205 C172.18214,59.78405 172.52214,62.45505 163.44414,67.18705 L163.44414,67.18705 Z" id="Path" fill="#D82C20"></path>
                    <path d="M163.44414,55.30705 C154.36614,60.03905 107.33814,79.37605 97.32614,84.59705 C87.31414,89.81605 81.75214,89.76505 73.84314,85.98405 C65.93314,82.20505 15.88814,61.98705 6.87314,57.67905 C2.36714,55.52505 -0.00186,53.70905 -0.00186,51.99305 L-0.00186,34.79605 C-0.00186,34.79605 65.15114,20.61305 75.67014,16.84005 C86.18814,13.06605 89.83714,12.93005 98.78814,16.20905 C107.74014,19.48805 161.26214,29.14305 170.10914,32.38405 C170.10914,32.38405 170.10514,47.74105 170.10514,49.33605 C170.10614,51.03405 168.06514,52.89905 163.44414,55.30705 L163.44414,55.30705 Z" id="Path" fill="#A41E11"></path>
                    <path d="M163.44414,38.10705 C154.36614,42.83905 107.33814,62.17605 97.32614,67.39605 C87.31414,72.61505 81.75214,72.56405 73.84314,68.78405 C65.93414,65.00405 15.88814,44.78705 6.87314,40.47905 C-2.14186,36.17105 -2.33086,33.20405 6.52514,29.73605 C15.38014,26.26805 65.15114,6.74205 75.67114,2.96805 C86.18914,-0.80595 89.83814,-0.94195 98.78914,2.33805 C107.74114,5.61705 154.48814,24.22305 163.33414,27.46405 C172.18214,30.70405 172.52214,33.37605 163.44414,38.10705 Z" id="Path" fill="#D82C20"></path>
                    <polygon id="Path" fill="#FFFFFF" points="107.34414 21.54705 92.60414 23.07705 89.30414 31.01705 83.97414 22.15705 66.95414 20.62705 79.65414 16.04705 75.84414 9.01705 87.73414 13.66705 98.94414 9.99705 95.91414 17.26705"></polygon>
                    <polygon id="Path" fill="#FFFFFF" points="88.42414 60.06705 60.91414 48.65705 100.33414 42.60705"></polygon>
                    <ellipse id="Oval" fill="#FFFFFF" cx="50.28414" cy="34.12705" rx="21.069" ry="8.167"></ellipse>
                    <polygon id="Path" fill="#7A0C00" points="124.76414 23.71705 148.09414 32.93705 124.78414 42.14705"></polygon>
                    <polygon id="Path" fill="#AD2115" points="98.95414 33.92705 124.76414 23.71705 124.78414 42.14705 122.25414 43.13705"></polygon>
                </g>
            </g>
        </g>
    </g>
</svg>