<?xml version="1.0" encoding="UTF-8"?>
<svg width="1200px" height="675px" viewBox="0 0 1200 675" version="1.1" xmlns="http://www.w3.org/2000/svg" xmlns:xlink="http://www.w3.org/1999/xlink">
    <title>fandoghpaas-community-banner</title>
    <defs>
        <linearGradient x1="0%" y1="50%" x2="100%" y2="50%" id="linearGradient-1">
            <stop stop-color="#101C4E" offset="0%"></stop>
            <stop stop-color="#162E96" offset="33.8987677%"></stop>
            <stop stop-color="#2842B6" offset="100%"></stop>
        </linearGradient>
        <filter x="-26.2%" y="-31.1%" width="152.4%" height="162.3%" filterUnits="objectBoundingBox" id="filter-2">
            <feOffset dx="-20" dy="-20" in="SourceAlpha" result="shadowOffsetOuter1"></feOffset>
            <feGaussianBlur stdDeviation="17" in="shadowOffsetOuter1" result="shadowBlurOuter1"></feGaussianBlur>
            <feColorMatrix values="0 0 0 0 0   0 0 0 0 0   0 0 0 0 0  0 0 0 0.3 0" type="matrix" in="shadowBlurOuter1" result="shadowMatrixOuter1"></feColorMatrix>
            <feMerge>
                <feMergeNode in="shadowMatrixOuter1"></feMergeNode>
                <feMergeNode in="SourceGraphic"></feMergeNode>
            </feMerge>
        </filter>
    </defs>
    <g id="fandoghpaas-community-banner" stroke="none" stroke-width="1" fill="none" fill-rule="evenodd">
        <rect id="Rectangle" fill="url(#linearGradient-1)" x="0" y="0" width="1200" height="675"></rect>
        <g id="Group-63" opacity="0.0478980655" transform="translate(0.000000, 33.000000)">
            <g id="Group-59">
                <circle id="Ellipse_184" fill="#FEFEFE" fill-rule="nonzero" cx="16" cy="214" r="16"></circle>
                <polygon id="Rectangle_858" fill="#FEFEFE" fill-rule="nonzero" transform="translate(131.954581, 281.865729) rotate(-60.000000) translate(-131.954581, -281.865729) " points="130.954581 148.365729 132.954581 148.365729 132.954581 415.365729 130.954581 415.365729"></polygon>
                <polygon id="Rectangle_860" fill="#FEFEFE" fill-rule="nonzero" transform="translate(313.991636, 320.750842) rotate(60.000000) translate(-313.991636, -320.750842) " points="312.991636 250.750842 314.991636 250.750842 314.991636 390.750842 312.991636 390.750842"></polygon>
                <polygon id="Rectangle_861" fill="#FEFEFE" fill-rule="nonzero" transform="translate(340.226950, 133.302154) rotate(150.000000) translate(-340.226950, -133.302154) " points="339.22695 31.302154 341.22695 31.302154 341.22695 235.302154 339.22695 235.302154"></polygon>
                <polygon id="Rectangle_862" fill="#FEFEFE" fill-rule="nonzero" transform="translate(565.166602, 321.006289) rotate(111.000000) translate(-565.166602, -321.006289) " points="564.166602 206.506289 566.166602 206.506289 566.166602 435.506289 564.166602 435.506289"></polygon>
                <polygon id="Rectangle_863" fill="#FEFEFE" fill-rule="nonzero" transform="translate(720.763311, 229.234180) rotate(174.870000) translate(-720.763311, -229.234180) " points="719.763311 137.73418 721.763311 137.73418 721.763311 320.73418 719.763311 320.73418"></polygon>
                <polygon id="Rectangle_864" fill="#FEFEFE" fill-rule="nonzero" transform="translate(851.865949, 279.102349) rotate(-135.000000) translate(-851.865949, -279.102349) " points="850.865949 187.602349 852.865949 187.602349 852.865949 370.602349 850.865949 370.602349"></polygon>
                <polygon id="Rectangle_865" fill="#FEFEFE" fill-rule="nonzero" transform="translate(1009.864582, 84.012709) rotate(-150.000000) translate(-1009.864582, -84.012709) " points="1008.86458 30.5127086 1010.86458 30.5127086 1010.86458 137.512709 1008.86458 137.512709"></polygon>
                <circle id="Oval" cx="1243" cy="405" r="48"></circle>
                <circle id="Oval" stroke="#FEFEFE" stroke-width="2" cx="1243" cy="405" r="47"></circle>
                <circle id="Oval" cx="1243" cy="405" r="64"></circle>
                <circle id="Oval" stroke="#FEFEFE" stroke-width="2" cx="1243" cy="405" r="63"></circle>
                <polygon id="Rectangle_859" fill="#FEFEFE" fill-rule="nonzero" transform="translate(194.877504, 446.440664) rotate(-149.000000) translate(-194.877504, -446.440664) " points="193.877504 333.440664 195.877504 333.440664 195.877504 559.440664 193.877504 559.440664"></polygon>
                <circle id="Ellipse_185" fill="#FEFEFE" fill-rule="nonzero" cx="130" cy="558" r="16"></circle>
                <circle id="Oval" cx="415" cy="262" r="48"></circle>
                <circle id="Oval" stroke="#FEFEFE" stroke-width="2" cx="415" cy="262" r="47"></circle>
                <circle id="Oval" cx="735" cy="390" r="70"></circle>
                <circle id="Oval" stroke="#FEFEFE" stroke-width="2" cx="735" cy="390" r="69"></circle>
                <circle id="Oval" cx="706" cy="70" r="70"></circle>
                <circle id="Oval" stroke="#FEFEFE" stroke-width="2" cx="706" cy="70" r="69"></circle>
                <circle id="Oval" cx="956" cy="177" r="55"></circle>
                <circle id="Oval" stroke="#FEFEFE" stroke-width="2" cx="956" cy="177" r="54"></circle>
                <circle id="Ellipse_193" fill="#FEFEFE" fill-rule="nonzero" cx="956" cy="177" r="16"></circle>
                <circle id="Ellipse_198-Copy" fill="#FEFEFE" fill-rule="nonzero" cx="282" cy="32" r="16"></circle>
                <circle id="Oval" cx="706" cy="70" r="28"></circle>
                <circle id="Oval" stroke="#FEFEFE" stroke-width="2" cx="706" cy="70" r="27"></circle>
                <circle id="Oval" cx="735" cy="390" r="32"></circle>
                <circle id="Oval" stroke="#FEFEFE" stroke-width="2" cx="735" cy="390" r="31"></circle>
                <circle id="Oval" cx="415" cy="262" r="32"></circle>
                <circle id="Oval" stroke="#FEFEFE" stroke-width="2" cx="415" cy="262" r="31"></circle>
                <circle id="Ellipse_198" fill="#FEFEFE" fill-rule="nonzero" cx="1042" cy="28" r="16"></circle>
            </g>
        </g>
        <g id="Group-96" transform="translate(337.000000, 541.000000)" fill="#FEFEFE">
            <g id="Group-8" transform="translate(126.000000, 0.000000)">
                <text id="Fandogh-PaaS" font-family="HelveticaNeue, Helvetica Neue" font-size="30" font-weight="normal">
                    <tspan x="75" y="42">Fandogh PaaS</tspan>
                </text>
                <path d="M50.1392374,11.6850539 C50.1389399,10.873389 49.9687895,10.0707773 49.6397361,9.32887004 C50.0665662,9.15235697 50.478007,8.94068611 50.8698165,8.6960397 C53.3293229,7.16638774 54.7606833,4.41783596 54.6044063,1.52474089 C54.5717294,0.673348502 53.8723439,9.05941988e-13 53.0207068,9.05941988e-13 C52.1690697,9.05941988e-13 51.4696842,0.673348502 51.4370074,1.52474089 C51.5843996,3.28552039 50.7602127,4.98656138 49.2872842,5.96155878 C48.7179036,6.32528299 48.0913875,6.59052732 47.433994,6.74617499 C46.4803759,6.13291767 45.3698837,5.80854069 44.2362516,5.81210807 C43.2092413,5.81285287 42.1999676,6.07996797 41.3069328,6.58738362 C35.9885396,1.19288111 28.2540086,-1.0558609 20.8740588,0.646717976 C17.809178,1.37278462 14.9007676,2.64726922 12.2891707,4.40867251 C11.8540135,4.65074599 11.4509504,4.94651073 11.0894338,5.28903059 L11.0894338,5.28903059 C9.12374501,7.14861246 8.68847291,10.113848 10.0367463,12.4603294 C6.94665967,15.7504193 4.49817818,19.5891267 2.81731759,23.7788854 C1.35243146,27.4884718 0.497966359,31.4109986 0.287133063,35.3940076 C0.0652422509,39.0772744 0.372585425,42.7733408 1.19977342,46.3692939 C0.418710025,47.387257 -0.00318772107,48.635453 1.81359168e-05,49.9187482 C0.00659855754,52.0509596 1.16104725,54.0142036 3.02074442,55.0557343 C4.88044159,56.097265 7.15681415,56.0554658 8.97705649,54.9463635 C11.9511147,55.6612215 15.0004599,56.0148254 18.0591118,56 C18.7896909,56 19.5482795,55.9808426 20.325541,55.9318041 C24.3185008,55.719922 28.2512836,54.8659907 31.9727926,53.4028179 C36.1772898,51.728869 40.0300444,49.279615 43.3306136,46.1824805 C44.2207338,46.6887335 45.2266955,46.9558232 46.2505959,46.9577561 C47.9916528,46.9612491 49.6444337,46.1913727 50.7624471,44.8561055 L50.78112,44.8561055 C53.0222812,41.9788686 54.6147796,38.6506446 55.4493572,35.0997765 C57.1541837,27.6654171 54.8395773,19.8810169 49.3503054,14.5876668 C49.8679975,13.7081186 50.1404381,12.7057642 50.1392374,11.6850539 L50.1392374,11.6850539 Z M44.007717,9 C45.6635623,9.00424941 47.0028448,10.3492732 47.0000181,12.0051244 C46.9971825,13.6609755 45.6533086,15.0014117 43.9974584,15 C42.3416082,14.998586 41.0000181,13.6558585 41.0000181,12 C41.0070786,10.3434927 42.351193,9.00396347 44.007717,9.0025663 L44.007717,9 Z M14.0103199,6.00078855 C15.6658057,6.00645255 17.0037834,7.35192339 17.0000181,9.0072222 C16.996237,10.662521 15.6521393,12.0018796 13.9966448,12 C12.3411504,11.9981165 11.0001014,10.6557061 11.0000917,9.00040303 C10.9945879,8.22075684 11.2981629,7.47067242 11.8443927,6.91427252 C11.9701396,6.81933177 12.2447299,6.59865867 12.6784286,6.30357256 C13.0904384,6.09384487 13.5481217,5.98979794 14.0103199,6.00078855 Z M4.99747881,53 C3.78341164,52.9989543 2.68966393,52.2662646 2.22674483,51.1439154 C1.76382573,50.0215661 2.02300931,48.7308517 2.88332106,47.874216 C3.74363282,47.0175802 5.0354445,46.7639264 6.15580017,47.2316482 C7.27615584,47.69937 8.00415421,48.7962463 8.00001814,50.0103076 C7.98874222,51.6617868 6.64898993,52.9958145 4.99747881,53 Z M29.5956567,51.6163268 C26.1941485,52.9480336 22.5992919,53.731533 18.9476444,53.9370623 C15.9482465,54.1105341 12.9386745,53.9250838 9.98410313,53.3847272 C10.296912,52.6602071 10.4563843,51.8798324 10.4526625,51.0918406 C10.4476208,49.2015663 9.52344507,47.4294975 7.97007309,46.3315777 C6.41670111,45.2336579 4.42445343,44.9444053 2.6183494,45.5545658 C2.08047028,42.6847716 1.89248132,39.7613714 2.05842092,36.8471665 C2.25074163,33.2199268 3.03561425,29.6475867 4.38247554,26.2692543 C5.90895496,22.4965412 8.13375592,19.0396442 10.9423071,16.0765843 C12.7816747,17.0921343 15.0272697,17.0629699 16.8391271,16 C20.0096266,17.3155176 23.0101395,19.001485 25.7768976,21.0220715 C28.7525034,23.1658231 31.4374965,25.6796773 33.7658354,28.5018018 C36.4073073,31.7179037 38.5119984,35.3321515 40.0000181,39.2073544 C39.4123738,40.1340681 39.1013048,41.2065232 39.1027269,42.3008948 C39.0989053,43.2980048 39.3581456,44.2788014 39.8547647,45.1461164 C36.8701716,47.91613 33.3901783,50.1103898 29.5933139,51.6163268 L29.5956567,51.6163268 Z M45.9923193,44 C44.3364739,43.9957506 42.9971915,42.6507268 43.0000181,40.9948756 C43.0028537,39.3390245 44.3467277,37.9985883 46.0025779,38 C47.6584281,38.001414 49.0000181,39.3441415 49.0000181,41 C48.9943625,42.6585111 47.648276,44 45.989753,44 L45.9923193,44 Z M53.553584,34.3554295 C53.2660108,35.6025974 52.8679006,36.8221858 52.3638867,38 C51.2550963,36.2960777 49.3491667,35.2662424 47.3029148,35.2653934 C46.428185,35.2680853 45.5641608,35.456174 44.7688597,35.8170296 C43.1601564,31.9589328 40.9866507,28.3566403 38.3183215,25.1261324 C35.766828,22.0366613 32.821996,19.2878086 29.5573912,16.9482443 C26.8843587,15.0122606 24.0133067,13.3600591 20.9915713,12.0188802 C21.4036112,11.2028321 21.6178797,10.3028209 21.617352,9.39035749 C21.619526,7.42508539 20.639411,5.58624501 19.0000181,4.47985277 C20.0240712,4.07647778 21.0771072,3.74945819 22.1503364,3.50152369 C25.018127,2.81647294 28.011138,2.83346414 30.8708169,3.5510295 C34.2782878,4.48709207 37.4007365,6.23994949 39.962483,8.65484262 C39.4604521,9.5368103 39.1973275,10.5324845 39.1986974,11.5450389 C39.2078805,14.832187 41.9007631,17.4917631 45.2185653,17.4904507 C46.2458624,17.4885224 47.2559536,17.2290054 48.154738,16.7360765 C52.9397101,21.2700383 54.9853068,27.9518159 53.5488252,34.3554295 L53.553584,34.3554295 Z" id="ic_fandogh" fill-rule="nonzero"></path>
            </g>
            <text id="Always-Been-and-Will" font-family="HelveticaNeue, Helvetica Neue" font-size="30" font-weight="normal">
                <tspan x="0" y="101">Always Been and Will be a Public PaaS</tspan>
            </text>
        </g>
        <g id="friends" filter="url(#filter-2)" transform="translate(402.000000, 153.000000)" fill="#FEFEFE" fill-rule="nonzero">
            <path d="M98,131 C61.6076,131 32,101.6167 32,65.5 C32,29.3833 61.6076,0 98,0 C134.3924,0 164,29.3833 164,65.5 C164,101.6167 134.3924,131 98,131 Z" id="Path"></path>
            <path d="M299,131 C262.6076,131 233,101.6167 233,65.5 C233,29.3833 262.6076,0 299,0 C335.3924,0 365,29.3833 365,65.5 C365,101.6167 335.3924,131 299,131 Z" id="Path"></path>
            <g id="Group" transform="translate(0.000000, 124.000000)">
                <g transform="translate(165.933594, 0.000000)" id="Path">
                    <path d="M149.650391,63.8425926 C149.650391,48.7888962 155.633305,35.1118782 165.336543,25.0247486 C155.406115,28.846018 144.630512,30.9539843 133.367187,30.9539843 C106.399102,30.9539843 82.1898555,18.9422907 65.8252363,0 L0.16128125,0 C26.9176855,20.5302301 44.1972656,52.782734 44.1972656,88.9927048 L44.1972656,208.939394 L156.629682,208.939394 L156.629682,147.031425 C156.629682,140.620855 161.837205,135.423681 168.260541,135.423681 C174.683877,135.423681 179.8914,140.620855 179.8914,147.031425 L179.8914,208.939394 L210.90625,208.939394 C217.329586,208.939394 222.537109,203.74222 222.537109,197.33165 L222.537109,119.946689 L205.866211,119.946689 C174.86842,119.946689 149.650391,94.7787783 149.650391,63.8425926 Z"></path>
                    <path d="M222.537109,119.819004 L222.537109,119.801979 C222.471201,119.807396 222.475854,119.812813 222.537109,119.819004 Z"></path>
                </g>
                <path d="M385.369141,96.7312009 L371.799805,96.7312009 C353.628525,96.7312009 338.845703,81.9777581 338.845703,63.8425926 C338.845703,45.707427 353.628525,30.9539843 371.799805,30.9539843 C385.694805,30.9539843 397,42.2367116 397,56.1040965 L397,85.1234568 C397,91.5340269 391.792477,96.7312009 385.369141,96.7312009 Z" id="Path"></path>
                <g transform="translate(0.000000, 15.476992)" id="Path">
                    <g transform="translate(7.753906, 0.000000)">
                        <path d="M140.137123,0.000773849607 C125.830391,9.7605651 108.544607,15.4769921 89.9453125,15.4769921 C78.6827637,15.4769921 67.9079355,13.3705735 57.9782832,9.550078 C67.6799707,19.6364338 73.6621094,33.3126779 73.6621094,48.3656004 C73.6621094,79.3017862 48.4440801,104.469697 17.4462891,104.469697 L0.775390625,104.469697 L0.775390625,181.854658 C0.775390625,188.265228 5.98291406,193.462402 12.40625,193.462402 L43.4226504,193.462402 L43.4226504,131.554433 C43.4226504,125.143863 48.6301738,119.946689 55.0535098,119.946689 C61.4768457,119.946689 66.6843691,125.143863 66.6843691,131.554433 L66.6843691,193.462402 L179.115234,193.462402 L179.115234,73.5157127 C179.115234,43.0082396 163.650068,16.0411285 140.137123,0.000773849607 Z"></path>
                        <path d="M0.775390625,104.324987 L0.775390625,104.34975 C0.864560547,104.341238 0.871539063,104.332726 0.775390625,104.324987 Z"></path>
                    </g>
                    <path d="M0,69.6464646 L0,40.6271044 C0,26.7597194 11.3051953,15.4769921 25.2001953,15.4769921 C43.3714746,15.4769921 58.1542969,30.2304349 58.1542969,48.3656004 C58.1542969,66.500766 43.3714746,81.2542088 25.2001953,81.2542088 L11.6308594,81.2542088 C5.20752344,81.2542088 0,76.0570348 0,69.6464646 Z"></path>
                </g>
            </g>
        </g>
    </g>
</svg>