<?xml version="1.0" encoding="UTF-8"?>
<svg width="1200px" height="650px" viewBox="0 0 1200 650" version="1.1" xmlns="http://www.w3.org/2000/svg" xmlns:xlink="http://www.w3.org/1999/xlink">
    <title>Wordpress-MySQL-logo</title>
    <defs>
        <filter x="-8.9%" y="-14.3%" width="117.7%" height="128.6%" filterUnits="objectBoundingBox" id="filter-1">
            <feOffset dx="0" dy="9" in="SourceAlpha" result="shadowOffsetOuter1"></feOffset>
            <feGaussianBlur stdDeviation="7" in="shadowOffsetOuter1" result="shadowBlurOuter1"></feGaussianBlur>
            <feColorMatrix values="0 0 0 0 0   0 0 0 0 0   0 0 0 0 0  0 0 0 0.5 0" type="matrix" in="shadowBlurOuter1" result="shadowMatrixOuter1"></feColorMatrix>
            <feMerge>
                <feMergeNode in="shadowMatrixOuter1"></feMergeNode>
                <feMergeNode in="SourceGraphic"></feMergeNode>
            </feMerge>
        </filter>
        <filter x="-19.6%" y="-19.8%" width="139.2%" height="139.6%" filterUnits="objectBoundingBox" id="filter-2">
            <feOffset dx="0" dy="10" in="SourceAlpha" result="shadowOffsetOuter1"></feOffset>
            <feGaussianBlur stdDeviation="5" in="shadowOffsetOuter1" result="shadowBlurOuter1"></feGaussianBlur>
            <feColorMatrix values="0 0 0 0 0   0 0 0 0 0   0 0 0 0 0  0 0 0 0.5 0" type="matrix" in="shadowBlurOuter1" result="shadowMatrixOuter1"></feColorMatrix>
            <feMerge>
                <feMergeNode in="shadowMatrixOuter1"></feMergeNode>
                <feMergeNode in="SourceGraphic"></feMergeNode>
            </feMerge>
        </filter>
    </defs>
    <g id="Wordpress-MySQL-logo" stroke="none" stroke-width="1" fill="none" fill-rule="evenodd">
        <rect fill="#FEFEFE" x="0" y="0" width="1200" height="650"></rect>
        <g id="WordPress" filter="url(#filter-1)" transform="translate(58.000000, 39.000000)" fill-rule="nonzero">
            <path d="M177.77547,280.542625 C183.014841,274.487774 179.319608,266.481162 170.76674,265.356498 L165.98829,264.728161 L165.98829,274.494142 L165.98829,284.260123 L170.733543,283.728451 C174.210436,283.33889 176.092683,282.487338 177.77547,280.542625 L177.77547,280.542625 Z M235.390702,301.505595 C240.903227,298.671914 243.449492,293.160631 243.449492,284.062691 C243.449492,277.164687 240.256505,270.2995 235.904569,267.840507 C234.244686,266.902618 230.057259,265.821698 226.599165,265.438458 L220.31173,264.741681 L220.31173,283.321162 C220.31173,299.944795 220.497057,302.012396 222.072212,302.962316 C224.14513,304.212397 231.741326,303.381516 235.390702,301.505595 L235.390702,301.505595 Z M145.868497,307.000007 C145.868497,305.453037 146.539162,305.000007 148.82943,305.000007 C154.208408,305.000007 154.922404,302.571676 154.922404,284.277507 C154.922404,269.333339 154.757598,267.836179 152.910424,266.000007 C151.803836,264.900009 149.766707,264.000007 148.383471,264.000007 C146.505264,264.000007 145.868497,263.472297 145.868497,261.91572 C145.868497,259.872631 146.201552,259.838215 162.718823,260.174751 C177.880447,260.483647 179.995552,260.743623 183.823874,262.768848 C193.275034,267.768595 193.782431,280.358209 184.75625,285.903484 C182.879322,287.05658 180.503835,288.000021 179.477395,288.000021 C177.043593,288.000021 190.212778,301.335675 194.768889,303.484876 C199.088342,305.522317 205.60528,305.450717 207.362189,303.346316 C208.415959,302.084156 208.742849,297.566553 208.742849,284.265707 C208.742849,268.169115 208.593786,266.730442 206.790094,265.419402 C205.716084,264.638729 203.565777,264.000007 202.011644,264.000007 C199.856613,264.000007 199.185948,263.525321 199.185948,262.000007 C199.185948,260.084447 199.856613,260.000007 215.070427,260.000007 C232.953656,260.000007 240.512646,261.372936 246.915488,265.783986 C259.341649,274.34463 258.943937,295.115192 246.190194,303.663676 C239.311494,308.274319 234.039159,309.000159 207.435851,308.999119 L183.593108,308.999119 L175.642563,299.000074 C171.269767,293.500551 167.308687,289.000981 166.840154,289.000981 C166.371636,289.000981 165.98829,291.60087 165.98829,294.778472 C165.98829,301.847355 167.867985,305.000957 172.081271,305.000957 C174.371539,305.000957 175.042196,305.453997 175.042196,307.000958 C175.042196,308.909039 174.371539,309.000959 160.455347,309.000959 C146.539162,309.000959 145.868497,308.909119 145.868497,307.000958 L145.868497,307.000007 Z M124.504737,302.376716 C134.343759,295.251032 134.323196,273.781302 124.470614,266.80745 C120.094294,263.709785 111.361917,263.218352 106.634853,265.803682 C101.385502,268.674651 97.5809458,276.503719 97.5809458,284.434899 C97.5809458,292.469191 101.430836,300.466955 106.634853,303.243516 C111.240402,305.700717 120.537637,305.249757 124.504689,302.376716 L124.504737,302.376716 Z M107.137896,310.12448 C98.1529676,307.753678 88.9492972,299.681914 86.6921864,292.193191 C82.8440427,279.425704 89.289032,266.615802 102.55983,260.655007 C109.130954,257.703486 120.414263,257.824742 127.486104,260.922887 C133.283582,263.462737 140.191794,270.21706 142.424254,275.528287 C144.425529,280.289505 144.203568,289.648613 141.974303,294.499992 C139.751178,299.338074 132.329864,306.323838 127.074099,308.525679 C122.621299,310.39112 111.522063,311.28128 107.137896,310.12448 L107.137896,310.12448 Z M21.2060048,285.250019 C10.3941875,251.927747 9.37563752,250 2.58110946,250 C0.670659491,250 0,249.48033 0,248 C0,246.083328 0.670659491,246 16.0958342,246 C31.5210081,246 32.1916684,246.083296 32.1916684,248 C32.1916684,249.544722 31.5210081,250 29.2455561,250 C26.564391,250 23.1395588,252.142371 23.1365424,253.821436 C23.1358728,254.194644 25.4835058,261.832088 28.3535065,270.793516 C32.2781827,283.048122 33.8038489,286.674652 34.5082565,285.423443 C35.0233683,284.508467 38.2581891,275.376382 41.6967486,265.129929 C50.1381043,239.975797 49.8886993,239.967077 58.3264817,265.71113 C61.8937531,276.595015 65.0725838,285.8321 65.390557,286.23798 C65.7085302,286.643852 68.4304324,279.542817 71.4392186,270.457892 C77.5252547,252.081331 77.5008212,250.733234 71.0718875,250.189634 C68.2173638,249.948274 67.401305,249.44805 67.401305,247.939633 C67.401305,246.112488 68.218072,246 81.4851599,246 C94.8983578,246 95.5690148,246.0952 95.5690148,248 C95.5690148,249.627242 94.8983578,250 91.9706704,250 C85.2898851,250 83.8544345,252.589795 73.5127001,283.301098 C66.2855659,304.763117 63.7983571,311.03352 62.6045693,310.80112 C61.55463,310.59672 58.9795138,304.079277 54.5833632,290.49999 C51.0222163,279.500016 47.794575,270.17038 47.4108181,269.767492 C47.0270693,269.364604 43.5710442,278.477104 39.7307713,290.017502 C34.5529225,305.577437 32.3365744,311 31.154683,311 C29.9578797,311 27.4798979,304.586317 21.2060048,285.250019 L21.2060048,285.250019 Z" id="path4187" fill="#21759A"></path>
            <path d="M343.774165,282.58376 C351.219865,279.484082 350.471526,268.210581 342.676917,266.054047 C334.346447,263.749261 334.312757,263.783213 334.312757,274.483275 L334.312757,283.987636 L337.357355,283.987636 C339.031882,283.987636 341.919444,283.355899 343.774165,282.58376 L343.774165,282.58376 Z M314.230453,306.998164 C314.230453,305.452734 314.899868,304.997245 317.17108,304.997245 C318.788429,304.997245 320.785349,304.326057 321.608691,303.505761 C323.641896,301.479951 324.65451,290.834586 324.010294,278.258175 C323.416806,266.671994 322.110926,263.978454 317.087177,263.978454 C314.854972,263.978454 314.230453,263.519388 314.230453,261.878539 C314.230453,259.812511 314.50999,259.784578 331.55144,260.147785 C349.784639,260.536395 351.386122,260.893983 356.605537,265.741992 C363.558007,272.199739 359.776115,285.432724 350.391116,287.486506 L347.384771,288.144408 L352.145064,293.639794 C361.128482,304.010553 370.334138,307.872325 373.918379,302.773745 C375.177692,300.982363 375.481481,297.385192 375.481481,284.265252 C375.481481,269.314231 375.316983,267.816384 373.473251,265.979373 C372.368724,264.878868 370.335391,263.978454 368.954733,263.978454 C367.11386,263.978454 366.444444,263.444882 366.444444,261.977536 C366.444444,260.038959 367.11386,259.976618 387.931016,259.976618 L409.417588,259.976618 L410.129433,267.039091 C410.52095,270.923441 410.586298,274.355608 410.274652,274.666127 C409.027389,275.908841 406.860122,273.983246 406.285801,271.122061 C405.494711,267.181044 403.710277,266.338361 394.308642,265.465937 L386.526749,264.74383 L386.526749,272.876866 L386.526749,281.00991 L390.794239,280.379012 C395.492197,279.684486 397.572016,277.816645 397.572016,274.292059 C397.572016,272.649105 398.151873,271.982127 399.580247,271.982127 C401.472064,271.982127 401.588477,272.649105 401.588477,283.487407 C401.588477,294.325708 401.472064,294.992654 399.580247,294.992654 C398.026897,294.992654 397.572016,294.325708 397.572016,292.048023 C397.572016,288.438023 394.437466,285.988555 389.817733,285.988555 L386.526749,285.988555 L386.526749,292.380736 C386.526749,301.415442 388.368529,303.515045 396.230109,303.442452 C405.161979,303.360014 407.294005,302.517147 408.755129,298.49122 C409.606996,296.143983 410.660618,294.992654 411.956867,294.992654 C413.585204,294.992654 413.790245,295.48408 413.261317,298.119129 C412.916158,299.838638 412.633745,302.990084 412.633745,305.122343 L412.633745,308.999082 L382.259259,308.95106 L351.884774,308.903038 L344.016149,298.946149 C339.688405,293.469876 335.734697,288.989292 335.230141,288.989292 C333.191257,288.989292 335.214959,302.683144 337.463663,304.102675 C338.215858,304.577533 340.073872,304.972914 341.592593,304.981318 C343.679377,304.992523 344.353909,305.485389 344.353909,306.997523 C344.353909,308.909521 343.684502,308.998442 329.292181,308.998442 C314.899868,308.998442 314.230453,308.909521 314.230453,306.997523 L314.230453,306.998164 Z M293.982493,274.568626 C301.533994,270.677817 301.533994,257.279092 293.982493,253.388283 C292.471669,252.609846 288.953836,251.972945 286.165095,251.972945 L281.09465,251.972945 L281.09465,263.978454 L281.09465,275.983964 L286.165095,275.983964 C288.953836,275.983964 292.471669,275.347063 293.982493,274.568626 Z M258,306.998164 C258,305.435286 258.669416,304.997245 261.057989,304.997245 C262.928961,304.997245 265.031923,304.084667 266.475616,302.646247 C268.500097,300.629161 268.941305,298.888282 269.58181,290.390623 C269.992413,284.943083 270.063304,274.884803 269.739336,268.038862 C269.049525,253.461789 267.793594,250.680824 261.665687,250.161746 C258.764509,249.916001 258,249.431147 258,247.836975 C258,245.873907 258.516862,245.830935 278.333333,246.14656 C298.611159,246.46954 298.679945,246.478192 303.528464,249.317719 C311.788396,254.155131 314.378893,263.295069 309.962963,272.020257 C306.606744,278.651628 299.541878,281.986718 288.850597,281.986718 L280.9008,281.986718 L281.248754,291.580609 C281.562729,300.237621 281.828193,301.361097 283.967207,303.085888 C285.27099,304.137171 287.643209,304.997245 289.238812,304.997245 C291.47051,304.997245 292.139918,305.458977 292.139918,306.998164 C292.139918,308.920646 291.47051,308.999082 275.069959,308.999082 C258.669416,308.999082 258,308.920646 258,306.998164 L258,306.998164 Z M465.851852,300.495179 C465.851852,290.802252 466.000887,289.990391 467.780299,289.990391 C469.109981,289.990391 469.915819,290.92975 470.375656,293.015747 C471.191857,296.718406 475.153766,301.56367 478.9751,303.532493 C485.285474,306.783905 492.962963,304.357672 492.962963,299.112225 C492.962963,295.50689 490.203237,293.074014 480.91358,288.489702 C472.625469,284.399657 469.393583,281.865182 467.262626,277.784454 C464.186651,271.894047 466.765998,263.595063 472.585232,260.659131 C478.283361,257.784292 482.559719,257.754518 491.707819,260.52599 C493.402364,261.03937 493.967078,260.806183 493.967078,259.593074 C493.967078,258.642678 494.795232,257.9757 495.975309,257.9757 C497.834785,257.9757 497.983539,258.642678 497.983539,266.979832 C497.983539,274.981856 497.782491,275.983964 496.177031,275.983964 C495.028846,275.983964 493.91394,274.725946 493.117653,272.531868 C490.406269,265.060959 481.450083,261.442995 476.897119,265.979373 C472.681619,270.179532 474.983219,273.053611 487.098408,278.71797 C498.197938,283.907472 502,288.102445 502,295.159531 C502,304.250983 496.626361,309.664187 486.575216,310.697781 C482.47273,311.119655 480.158799,310.76101 476.457301,309.129622 C471.513094,306.950542 469.868313,307.057551 469.868313,309.558378 C469.868313,310.351302 468.964609,311 467.860082,311 C465.979358,311 465.851852,310.333054 465.851852,300.495179 Z M421.670782,300.495179 C421.670782,290.657385 421.798288,289.990391 423.679012,289.990391 C424.915914,289.990391 425.693589,290.662828 425.703767,291.741162 C425.734131,294.953036 430.163404,301.264893 433.7045,303.142314 C440.754225,306.879949 448.781893,304.498056 448.781893,298.668661 C448.781893,295.469753 445.782504,293.027433 435.226337,287.630708 C424.593504,282.19479 421.670782,278.782608 421.670782,271.80503 C421.670782,266.592414 424.046976,262.874052 429.013226,260.315253 C433.111285,258.203781 441.39681,258.132988 445.48119,260.174549 C448.536471,261.701706 448.739375,261.686195 449.314291,259.881382 C449.648163,258.833253 450.794598,257.9757 451.861908,257.9757 C453.636172,257.9757 453.802469,258.747326 453.802469,266.979832 C453.802469,275.195914 453.633529,275.983964 451.87211,275.983964 C450.559795,275.983964 449.573875,274.873342 448.792737,272.5151 C447.266458,267.907257 442.476555,263.978454 438.385067,263.978454 C431.229389,263.978454 428.179569,270.065624 433.469136,273.790237 C434.987864,274.859624 439.845267,277.545624 444.263374,279.759096 C454.745936,285.010882 457.031286,287.49623 457.574087,294.234627 C458.107336,300.854384 455.318595,305.473944 448.812057,308.748967 C443.321193,311.512795 437.63374,311.590511 431.861298,308.980673 C427.334048,306.933814 425.687243,307.087965 425.687243,309.558378 C425.687243,310.351302 424.783539,311 423.679012,311 C421.798288,311 421.670782,310.333054 421.670782,300.495179 Z" id="path4179" fill="#464646"></path>
            <path d="M209.59769,116.403164 C200.353362,88.9997351 192.792455,66.071081 192.795665,65.4506031 C192.798875,64.8061874 195.189004,64.1247388 198.369524,63.8613339 C204.910577,63.3196339 207.979528,61.1369421 205.832552,58.5534849 C204.653124,57.1342813 202.510482,57.024441 188.113584,57.6451112 C179.106077,58.0334388 171.736282,58.0296402 171.736282,57.6366965 C171.736282,55.9146509 178.172844,47.9765509 184.944957,41.3466683 C202.281252,24.3744462 225.415211,15.0036069 249.978548,15.0036069 C261.092585,15.0036069 269.400381,16.4035288 280.927288,20.2186695 C290.270169,23.3109531 304.85671,31.5116246 310.440592,36.8112832 L313.224042,39.4530504 L308.810135,40.7383557 C303.196554,42.3729844 298.621804,47.0310242 297.237334,52.5218493 C295.794795,58.2429735 297.560342,64.0057226 304.15269,75.0936629 C315.901372,94.8542126 315.974446,102.686215 304.754594,139.597948 C300.585942,153.312212 296.948744,164.759149 296.671943,165.035585 C296.395134,165.312029 295.940879,164.910197 295.662473,164.14263 C294.127328,159.910063 262.015819,64.7677922 262.015819,64.4519274 C262.015819,64.244276 263.934264,64.0294441 266.27902,63.974524 C273.211686,63.8121438 275.55775,62.8146621 275.55775,60.0294679 L275.55775,57.5775049 L248.250413,57.5280584 C226.819351,57.4892705 220.836048,57.7571553 220.445703,58.7729891 C219.425497,61.4280115 221.13885,62.985994 225.742079,63.5890894 C228.313826,63.9260231 231.052666,64.2857486 231.828388,64.3884724 C232.690393,64.5026241 236.107871,72.3447642 240.617499,84.55692 L247.996186,104.538601 L237.71455,135.39589 C232.059656,152.367407 227.201767,166.247426 226.919244,166.240392 C226.636713,166.233177 218.842018,143.806601 209.59769,116.403172 L209.59769,116.403164 Z M296.121422,189.033334 C296.121422,188.890243 302.962701,169.168233 311.324256,145.206635 C330.107552,91.379644 331.369435,86.8578427 331.432671,73.1509511 C331.474801,64.017415 331.655826,62.9322359 332.862345,64.5800396 C335.221169,67.8015654 340.004821,81.2354513 341.674246,89.3263947 C343.497548,98.1631714 343.768587,115.977034 342.213163,124.746886 C338.757142,144.232675 328.269741,163.581336 314.025837,176.750895 C306.379144,183.82082 296.121422,190.857638 296.121422,189.033334 Z M199.823249,187.477844 C177.608167,173.243245 162.29691,150.417539 157.74394,124.746886 C156.088936,115.415612 156.48412,98.7553919 158.603755,88.4987062 C160.416407,79.7274682 164.215772,69.2528572 165.220627,70.2563654 C165.649892,70.6850436 209.854309,191.25487 209.854309,191.997016 C209.854309,193.218137 206.241988,191.590729 199.823249,187.477844 Z M237.476509,201.168884 C227.098728,199.840687 222.624129,198.45479 223.27179,196.769328 C223.571382,195.989612 229.750547,178.098269 237.003243,157.010789 C244.255932,135.923301 250.56205,117.993724 251.016827,117.167277 C251.663035,115.992942 252.095358,116.321237 252.995593,118.669907 C257.467135,130.335971 281.074833,195.515638 281.074833,196.195284 C281.074833,198.267718 258.121834,202.491462 248.500202,202.189566 C246.278908,202.119844 241.318236,201.660568 237.476509,201.168884 Z M267.524877,209.802825 C319.812161,200.696986 358.219604,150.386797 352.388822,98.638924 C349.464552,72.6862658 340.08137,53.5173355 321.249091,35.0235226 C301.527201,15.6560768 277.520531,5.81879713 249.978548,5.81879713 C230.953118,5.81879713 213.186506,10.7431349 196.626896,20.6061716 C186.319998,26.7450349 170.673013,41.8481619 164.213501,51.8929407 C139.941209,89.6372347 141.519239,134.949301 168.347485,170.596925 C191.186362,200.943754 230.088842,216.322323 267.524877,209.802825 L267.524877,209.802825 Z M230.573735,215.807846 C208.377648,211.620086 189.037998,201.489629 173.229249,185.769782 C131.096743,143.8742 130.15453,76.3301708 171.101982,33.2718491 C186.748461,16.8187755 207.043325,5.66745227 228.863753,1.53377016 C239.65885,-0.51125672 260.298253,-0.51125672 271.093351,1.53377016 C310.72764,9.04213409 343.467037,39.091714 354.711101,78.2816259 C369.596303,130.162323 344.741849,184.449937 295.56843,207.462297 C281.916078,213.851382 270.113509,216.471648 252.987866,216.915521 C242.897703,217.17705 236.03267,216.837785 230.573735,215.807846 L230.573735,215.807846 Z" id="path4165" fill="#464646"></path>
        </g>
        <g id="planet-logo" filter="url(#filter-2)" transform="translate(689.000000, 238.000000)">
            <path d="M56.4742072,9.14732355 C78.2220005,-3.04910785 119.778,-3.04910785 141.525793,9.14732355 C142.538657,10.0622908 144.063464,10.4658567 145.267796,11.1896611 C147.656865,12.3170314 149.622172,13.8679826 152.07207,14.9340828 C153.037577,16.1239486 154.618315,16.6978455 155.814482,17.6573357 C159.846342,20.3176846 163.219289,23.6373 167.041309,26.5076012 C169.46957,28.9567724 171.541838,31.7625358 174.185654,33.9960361 C175.6431,36.5089282 177.728024,38.3940058 179.288757,40.8039641 C180.69803,42.6845485 181.733348,44.9384722 183.37124,46.5907233 C184.006066,48.5652553 185.249182,49.9311706 186.092623,51.6965672 C187.040575,53.3578046 187.676218,55.3315196 188.814414,56.8024111 C193.121841,66.9025872 196.643799,77.7882464 197.659929,91.1818961 C197.873035,92.2165443 197.224328,94.1138759 198,94.5856558 C198,97.1953548 198,99.8050537 198,102.414753 C197.224328,102.886533 197.873035,104.784273 197.659929,105.818921 C196.643799,119.212162 193.121841,130.097821 188.814414,140.197997 C187.676218,141.669297 187.040575,143.643012 186.092623,145.303841 C185.249182,147.069238 184.005658,148.435153 183.37124,150.409685 C181.733348,152.061936 180.69803,154.31586 179.288757,156.196444 C177.728024,158.605994 175.6431,160.49148 174.185654,163.004372 C171.541838,165.238281 169.46957,168.043636 167.041309,170.492807 C163.219289,173.3627 159.846342,176.682724 155.814482,179.343073 C154.618315,180.302563 153.037577,180.87646 152.07207,182.065917 C149.622172,183.132017 147.656865,184.682969 145.267796,185.810339 C144.063464,186.534143 142.538657,186.937709 141.525793,187.852676 C119.778,200.049108 78.2220005,200.049108 56.4742072,187.852676 C55.460935,186.937709 53.9361277,186.534143 52.7317953,185.810339 C50.3431347,184.682969 48.3774193,183.132017 45.9275215,182.065917 C44.9620144,180.87646 43.3812771,180.302563 42.1851097,179.343073 C38.1532498,176.682724 34.7803026,173.3627 30.9582824,170.492807 C28.5296135,168.043636 26.4577535,165.238281 23.8139378,163.004372 C22.3564915,160.49148 20.2715676,158.605994 18.7108345,156.196444 C17.3015614,154.31586 16.2658356,152.061936 14.6283518,150.409685 C13.9935258,148.435153 12.7504098,147.069238 11.9065606,145.303841 C10.9586082,143.643012 10.3229656,141.669297 9.18476945,140.197997 C4.87734202,130.097821 1.35538424,119.212162 0.339254308,105.818921 C0.12696521,104.783456 0.775671702,102.885716 0,102.413936 C0,99.8042368 0,97.1949463 0,94.5848389 C0.775671702,94.1130589 0.12696521,92.2157273 0.340070804,91.1810791 C1.35579249,77.7874295 4.87815851,66.9017703 9.18558595,56.8015942 C10.3237821,55.3307027 10.9594247,53.3569876 11.9073771,51.6957503 C12.7512263,49.9303537 13.9943423,48.5644383 14.6291683,46.5899064 C16.2666521,44.9380638 17.3023779,42.6837316 18.711651,40.8031472 C20.2723841,38.3935973 22.357308,36.5081113 23.8147543,33.9952192 C26.45857,31.7613104 28.53043,28.955547 30.9590989,26.5067843 C34.7811191,23.6368916 38.1540663,20.3168676 42.1859262,17.6565187 C43.3816853,16.6970286 44.9624226,16.1231317 45.928338,14.9332658 C48.3782358,13.8671656 50.343543,12.3162145 52.7326118,11.1888442 C53.936536,10.4658567 55.4613432,10.0622908 56.4742072,9.14732355 Z M93.216551,2.68005745 C74.0317403,3.79476529 59.8442966,9.9099324 47.2886212,17.6573357 C45.9618144,18.4852993 44.4247596,19.1037191 43.5462094,20.3805886 C41.2310335,21.3543751 39.6849973,23.0977144 37.7625562,24.4652637 C36.0017814,25.9937491 34.0356578,27.3167754 32.6594529,29.2308541 C28.1821942,32.8069872 24.6402322,37.3193278 21.4326256,42.1657948 C19.693488,43.715929 18.637758,45.9502463 17.350143,47.952554 C16.4001493,49.611749 15.1856107,51.0062571 14.6283518,53.0583979 C13.3166501,54.3556907 12.6524302,56.300813 11.9065606,58.1642418 C7.35704197,68.0221967 3.79385112,78.8670091 3.06104549,92.5437268 C2.28537378,93.0159152 2.93408028,94.9132468 2.72097468,95.9474865 C2.72097468,97.6495706 2.72097468,99.3512463 2.72097468,101.05333 C2.93448852,102.087979 2.28537378,103.98531 3.06104549,104.45709 C3.79344287,118.133808 7.35663373,128.97862 11.9065606,138.836575 C12.6524302,140.700004 13.3166501,142.645126 14.6283518,143.942419 C15.1856107,145.99456 16.4001493,147.389068 17.350143,149.048263 C18.637758,151.050162 19.693488,153.284479 21.4326256,154.835022 C24.6402322,159.681081 28.1821942,164.193421 32.6594529,167.769554 C34.0356578,169.683633 36.0017814,171.006659 37.7625562,172.535145 C39.684589,173.902694 41.2306252,175.646033 43.5462094,176.61982 C44.4247596,177.896689 45.9618144,178.514701 47.2886212,179.343073 C59.8442966,187.090068 74.0317403,193.205235 93.216551,194.319943 C96.2812707,194.886895 101.718729,194.886895 104.783449,194.319943 C123.967851,193.205235 138.155295,187.090068 150.711379,179.343073 C152.038186,178.514701 153.57524,177.896689 154.453382,176.61982 C156.768967,175.646033 158.315003,173.902694 160.237036,172.535145 C161.99781,171.006659 163.964342,169.683633 165.340139,167.769554 C169.817398,164.193421 173.35936,159.681081 176.566966,154.835022 C178.306104,153.284479 179.361834,151.050162 180.649449,149.048263 C181.599034,147.389068 182.813981,145.99456 183.37124,143.942419 C184.682942,142.645126 185.347162,140.700004 186.092623,138.836575 C190.64255,128.97862 194.205332,118.133808 194.938138,104.45709 C195.71381,103.98531 195.065103,102.087979 195.278209,101.05333 C195.278209,99.3512463 195.278209,97.6495706 195.278209,95.9474865 C195.065103,94.9128383 195.71381,93.0155067 194.938138,92.5437268 C194.205332,78.8670091 190.64255,68.0221967 186.092623,58.1642418 C185.347162,56.300813 184.682942,54.3556907 183.37124,53.0583979 C182.813981,51.0062571 181.599034,49.611749 180.649449,47.952554 C179.361834,45.9506547 178.306104,43.7163375 176.566966,42.1657948 C173.35936,37.3193278 169.817398,32.8069872 165.340139,29.2308541 C163.964342,27.3171838 161.99781,25.9941576 160.237036,24.4652637 C158.315003,23.0977144 156.768967,21.3543751 154.453382,20.3805886 C153.57524,19.1037191 152.038186,18.4857078 150.711379,17.6573357 C138.155295,9.91034086 123.967851,3.79476529 104.783449,2.68005745 C101.718729,2.11310455 96.2816789,2.11310455 93.216551,2.68005745 Z" id="Shape" fill="#577FA2"></path>
            <path d="M77.9290716,78.7876903 C73.1026682,71.5796057 68.0342874,65.2520786 68.0002984,53.6248854 C67.9352779,31.0066384 78.4964246,8.16763997 100.524593,5 C100.999099,5.77528223 102.907804,5.12690146 103.94802,5.33990005 C122.950032,6.75540219 137.241083,12.8503446 150.166132,20.301623 C151.13815,21.490253 152.728875,22.0635538 153.932189,23.0220475 C154.900921,23.5333257 155.390628,24.5203824 156.671177,24.7223638 C161.118387,28.5791889 165.579564,32.4229566 169.680446,36.6237622 C171.147101,39.1340444 173.245609,41.0175722 174.815792,43.4246195 C176.233969,45.3032507 177.276239,47.5552416 178.924069,49.2053686 C179.562906,51.1778498 180.814287,52.5423466 181.663057,54.3059096 C182.616998,55.9654216 183.256657,57.9370867 184.402045,59.4064506 C195.866191,79.9534699 195.86578,116.727554 184.402045,137.274574 C183.256657,138.743937 182.616998,140.715603 181.663057,142.375115 C180.814287,144.13827 179.562906,145.502766 178.924069,147.475656 C177.276239,149.125783 176.233969,151.377365 174.815792,153.255997 C173.245609,155.663044 171.147101,157.546572 169.680446,160.056854 C165.579564,164.25766 161.118387,168.101427 156.671177,171.958252 C155.390628,172.159826 154.900921,173.146882 153.932189,173.658161 C152.728875,174.616654 151.13815,175.190363 150.166132,176.378585 C138.201598,183.310424 124.971304,188.984674 108.056297,191 C124.046942,183.986552 132.597498,169.584257 135.787164,149.855772 C136.573077,149.162507 135.911234,147.031705 136.129794,145.775339 C136.562807,130.837283 132.877272,119.989452 125.859103,112.451669 C124.518572,110.836225 123.035073,109.362781 121.408196,108.031336 C109.754658,98.1840275 94.3186304,92.0927575 82.0373483,82.8685311 C80.8110277,81.3657077 79.4417391,80.0056994 77.9290716,78.7876903 Z M135.787164,43.0839034 C129.084511,37.7271112 123.023159,31.7325474 111.137504,31.5228131 C107.729689,27.3966795 93.9636753,22.0096921 93.335109,30.5027049 C92.9600233,35.5730507 98.6614897,38.8271959 100.524593,42.7440033 C103.705221,49.4306085 104.282434,56.7117328 108.398927,59.7459426 C103.874482,66.5072197 105.424945,89.175248 114.218712,88.3089721 C118.322469,87.9050093 116.919082,82.4792578 118.669619,79.1279984 C120.539706,84.5247788 123.985318,88.3563051 128.25546,91.3692967 C129.463705,92.7807184 131.450467,95.2171448 133.048587,95.1098295 C131.588916,94.1790827 130.7422,92.6399435 129.28253,91.7096048 C124.753565,85.7799199 121.339998,78.7428055 117.984769,71.6473409 C114.830023,74.5211897 114.219944,79.9224586 113.191642,84.9087475 C110.216429,82.990128 109.315483,79.0108899 108.741146,74.7076655 C108.741146,72.8939131 108.741146,71.0805688 108.741146,69.2672245 C108.272803,65.4038707 111.950532,62.5895962 111.137504,58.7262424 C110.847049,57.3441999 108.766618,55.7834343 108.056297,54.6458097 C105.802085,51.0338106 105.082315,46.0450734 102.920951,41.7243031 C100.678243,37.2394995 96.4795839,34.3611622 96.4163165,29.8224968 C101.492503,28.2303119 106.238384,32.4164279 109.425996,34.9230378 C119.277643,34.7434987 124.799578,38.7190644 129.967379,42.7440033 C138.750875,49.5848489 142.438053,56.9316681 147.427555,67.5665001 C149.449238,71.8762532 151.63443,79.1802279 154.959258,81.5081148 C158.158373,83.7478644 162.2913,83.9702479 165.572169,85.9284476 C168.781555,87.8438028 171.827842,89.2144202 174.473572,92.3889969 C168.57532,92.0845966 163.954741,93.0492109 160.436824,95.1094214 C161.906354,99.706437 165.84044,102.387281 170.023076,104.630295 C174.181063,106.859844 178.384241,109.262811 181.663057,111.430745 C178.307005,104.562968 170.545238,102.071048 165.9148,96.4690216 C170.177958,95.7161818 174.453031,94.9751752 178.581849,94.0889052 C174.086984,86.4254444 166.211417,82.1197717 157.355616,78.7872822 C151.024351,68.3005699 147.83715,54.6911025 139.211002,46.48372 C138.213101,45.2085847 137.071822,44.0750405 135.787164,43.0839034 Z M111.137504,40.7037869 C111.875761,42.8039857 113.765158,43.7612552 114.218712,46.1442279 C117.65282,44.9637587 115.303297,39.4421171 111.137504,40.7037869 Z" id="Shape" fill="#FFA230"></path>
            <path d="M100,5.11942191 C100.911916,5.59640093 102.584183,4.14444755 103,5.88057809 C102.088444,5.40359907 100.415817,6.85555245 100,5.11942191 Z" id="Path" fill="#FFCE92"></path>
            <path d="M59.7958931,14.1671622 C68.0188185,10.7022437 76.5077245,7.50275785 86.6934311,6 C86.9753459,6.98781827 84.5353523,7.62853215 82.9480491,8.72252353 C72.572765,15.8720573 65.4444047,29.0742751 63.8812072,45.4747536 C63.0934798,46.7292297 63.7623126,49.4395025 63.5408665,51.2599629 C63.7427012,87.9235793 95.6595494,92.8900306 116.31492,109.110832 C117.534509,110.614406 118.89628,111.975872 120.400643,113.194413 C125.046927,119.627686 130.524655,127.250099 130.955699,138.716795 C131.47336,152.494797 127.424,168.586557 120.400643,176.149758 C119.123446,177.141659 117.988432,178.276078 116.99601,179.552606 C111.710311,185.136495 105.535558,189.699488 96.567397,190.782454 C83.8215766,192.321964 69.5668988,185.302288 59.7958931,181.934967 C58.7818167,181.020245 57.2557993,180.616379 56.0505111,179.893176 C53.6595462,178.766108 51.6926793,177.215572 49.2408372,176.149758 C48.2745638,174.960619 46.6925719,174.386467 45.4954552,173.427234 C41.4603955,170.767598 38.0847715,167.448871 34.2597179,164.579747 C32.8983551,162.877302 31.6162553,161.096453 29.8336545,159.815433 C28.3750516,157.303214 26.288473,155.418233 24.7265012,153.009329 C23.3161098,151.129248 22.2795619,148.875928 20.6407786,147.224527 C20.0058573,145.250116 18.7613461,143.884566 17.9168273,142.120051 C16.9681225,140.459259 16.3319755,138.486072 15.192876,137.015575 C10.88203,126.917695 7.35727707,116.034952 6.3403407,102.645298 C6.12706597,101.610926 6.7762873,99.714103 6,99.2424494 C6,98.4486012 6,97.6543447 6,96.8604965 C6.7762873,96.3884346 6.12706597,94.4916111 6.3403407,93.4576484 C7.35727707,80.0679943 10.88203,69.1852506 15.192876,59.0873712 C16.3319755,57.6168737 16.9677139,55.6436873 17.9168273,53.9828948 C18.7613461,52.2179711 20.0054487,50.8524215 20.6407786,48.8784184 C22.2795619,47.2270182 23.3161098,44.9732898 24.7265012,43.0932091 C26.288473,40.6843046 28.3750516,38.7993235 29.8336545,36.2871044 C31.6162553,35.006085 32.8987637,33.2248269 34.2597179,31.5227903 C38.0847715,28.6532579 41.4603955,25.3345315 45.4954552,22.6748951 C46.6921634,21.7156619 48.2741552,21.1419188 49.2408372,19.9523716 C51.6926793,18.8865569 53.6595462,17.3360212 56.0505111,16.2089528 C57.2557993,15.4853422 58.7818167,15.0822928 59.7958931,14.1671622 Z M91.8005844,126.465643 C92.2663568,130.331977 88.6088178,133.148423 89.4173823,137.015166 C89.7099201,138.41461 91.7699415,139.950853 92.4816743,141.098747 C94.7239189,144.713533 95.4397375,149.705711 97.5888277,154.029815 C99.8200408,158.519304 104.032012,161.382303 104.057752,165.940396 C99.0094334,167.53381 94.2896066,163.344872 91.1194944,160.83592 C81.3227486,161.038874 75.7849601,157.001029 70.6908811,153.00892 C61.969089,146.173822 58.1517983,138.760081 53.3265598,128.167271 C51.3539729,123.837042 49.0998797,116.514364 45.8362045,114.2149 C42.5704864,111.91421 38.1546373,112.111855 34.9408079,110.131318 C31.6444468,108.100145 29.2759534,106.140026 26.4290219,103.325622 C32.3140968,103.64945 36.8190146,102.593844 40.3887105,100.603099 C38.4990637,93.4502979 30.6749048,91.7682709 25.0672505,88.3523553 C22.8454345,86.9990565 21.5776348,84.6799908 19.2790072,84.2687742 C22.6583084,91.100197 30.345187,93.6258919 34.9408079,99.242041 C30.7668336,100.060799 26.4114533,100.698246 22.3432992,101.623994 C26.8351427,109.271725 34.667473,113.580719 43.4530025,116.937423 C49.7629925,127.418751 52.9171704,141.054645 61.4984137,149.26591 C62.4908357,150.542437 63.6258495,151.676856 64.9030464,152.668758 C71.5693115,158.030091 77.5973867,164.028872 89.4173823,164.238768 C92.8395836,168.364002 106.47364,173.733911 107.122044,165.259663 C107.506511,160.238492 101.808971,156.895264 99.9720297,153.00892 C96.8113146,146.322056 96.2107134,139.033272 92.1409251,135.994271 C96.6225543,129.295973 95.0703882,106.467529 86.3526818,107.409203 C82.2886135,107.84778 83.7043164,113.267917 81.9266184,116.597261 C80.1027518,111.387428 76.9073081,107.548453 72.7337424,104.68668 C71.396894,103.183105 69.3724184,100.565121 67.6265891,100.603099 C69.1910123,101.648904 70.1478886,103.300712 71.7123118,104.346517 C75.5406339,110.388992 79.6868253,116.113356 81.9266184,123.743528 C86.3150931,122.003922 85.9996753,115.563706 87.3741124,110.812051 C90.36813,112.583917 91.0770029,116.639322 91.8001758,120.680842 C91.8005844,122.609109 91.8005844,124.537376 91.8005844,126.465643 Z M89.4173823,155.050711 C88.7322067,152.899889 86.7351054,152.060304 86.3530904,149.606072 C83.0195492,150.869532 85.2299252,156.268843 89.4173823,155.050711 Z" id="Shape" fill="#577FA2"></path>
            <path d="M63.8767906,46 C63.3859841,47.8876262 64.8656347,50.6985247 63.1238591,52 C63.6137617,50.1119503 62.1341111,47.3010517 63.8767906,46 Z" id="Path" fill="#ADC0D1"></path>
            <path d="M109,69 C109,70.99985 109,73.00015 109,75 C107.666667,73.8619215 107.666667,70.1380785 109,69 Z" id="Path" fill="#FFCE92"></path>
            <path d="M0.11942191,94 C0.596400933,93.0880835 -0.855552454,91.4158166 0.88057809,91 C0.403599067,91.9115565 1.85555245,93.5838234 0.11942191,94 Z" id="Path" fill="#ADC0D1"></path>
            <path d="M198.119469,91 C199.85537,91.4158166 198.403758,93.0880835 198.880925,94 C197.14411,93.5841834 198.596636,91.9119165 198.119469,91 Z" id="Path" fill="#ADC0D1"></path>
            <path d="M3.98184694,92 C3.98184694,93.00012 3.98184694,94.00024 3.98184694,95 C3.70384694,95 3.42584694,95 3.14884694,95 C3.67084694,94.0880835 2.08184694,92.4158166 3.98184694,92 Z" id="Path" fill="#ADC0D1"></path>
            <path d="M195.018153,92 C196.918153,92.4161766 195.329153,94.0884435 195.851153,95 C195.574153,95 195.295153,95 195.018153,95 C195.018153,93.99988 195.018153,92.99976 195.018153,92 Z" id="Path" fill="#ADC0D1"></path>
            <path d="M5.11942191,97 C5.59640093,96.0880835 4.14444755,94.4158166 5.88057809,94 C5.40359907,94.9119165 6.85555245,96.5841834 5.11942191,97 Z" id="Path" fill="#ADC0D1"></path>
            <path d="M3.0835,96 C3.3615,96 3.6395,96 3.9165,96 C3.9165,97.6668 3.9165,99.3332 3.9165,101 C3.6385,101 3.3605,101 3.0835,101 C3.0835,99.3332 3.0835,97.6668 3.0835,96 Z" id="Path" fill="#FEFEFE"></path>
            <path d="M195.0835,96 C195.3605,96 195.6395,96 195.9165,96 C195.9165,97.6668 195.9165,99.3332 195.9165,101 C195.6395,101 195.3605,101 195.0835,101 C195.0835,99.3332 195.0835,97.6668 195.0835,96 Z" id="Path" fill="#FEFEFE"></path>
            <path d="M5.11884129,100 C6.85611657,100.416177 5.40320582,102.088084 5.88049935,103 C4.14413842,102.584183 5.59704917,100.911556 5.11884129,100 Z" id="Path" fill="#ADC0D1"></path>
            <path d="M3.14884694,101 C3.42684694,101 3.70484694,101 3.98184694,101 C3.98184694,101.99976 3.98184694,103.00024 3.98184694,104 C2.08184694,103.584183 3.67084694,101.911916 3.14884694,101 Z" id="Path" fill="#ADC0D1"></path>
            <path d="M195.018153,101 C195.295153,101 195.574153,101 195.851153,101 C195.329153,101.911916 196.918153,103.584183 195.018153,104 C195.018153,103.00024 195.018153,101.99976 195.018153,101 Z" id="Path" fill="#ADC0D1"></path>
            <path d="M0.11942191,102 C1.85555245,102.415767 0.403599067,104.088193 0.88057809,105 C-0.855552454,104.584233 0.596400933,102.911807 0.11942191,102 Z" id="Path" fill="#ADC0D1"></path>
            <path d="M198.880925,102 C198.403758,102.911807 199.85537,104.584233 198.119469,105 C198.596636,104.088193 197.14411,102.415767 198.880925,102 Z" id="Path" fill="#ADC0D1"></path>
            <path d="M92,121 C93.3333333,122.187632 93.3333333,125.812368 92,127 C92,125 92,123 92,121 Z" id="Path" fill="#ADC0D1"></path>
            <path d="M136.120749,150 C136.60459,148.7684 135.139426,146.6792 136.879251,146 C136.39541,147.2316 137.860574,149.3204 136.120749,150 Z" id="Path" fill="#FFCE92"></path>
            <path d="M54,11 C54.6829933,9.946 55.8640777,9.5004 57,9 C56.1877386,9.896 54.9654194,10.2912 54,11 Z" id="Path" fill="#ADC0D1"></path>
            <path d="M43,18 C43.7042653,16.5933703 44.9364023,15.9125544 46,15 C45.2260281,16.3107845 43.9588742,16.9434528 43,18 Z" id="Path" fill="#ADC0D1"></path>
            <path d="M24,34 C26.2908,31.2870779 28.3452,28.3162603 31,26 C28.6208,28.6164839 26.5904,31.6139203 24,34 Z" id="Path" fill="#ADC0D1"></path>
            <path d="M15,47 C16.2616,44.9243312 17.296,42.6076798 19,41 C17.6192,42.9498835 16.6048,45.2868638 15,47 Z" id="Path" fill="#ADC0D1"></path>
            <path d="M10,57 C10.8221089,55.1752 11.5542223,53.2704 13,52 C11.9551522,53.6264 11.2545373,55.5592 10,57 Z" id="Path" fill="#ADC0D1"></path>
            <path d="M10,140 C11.2545373,141.4408 11.9551522,143.3736 13,145 C11.5542223,143.7296 10.8221089,141.8252 10,140 Z" id="Path" fill="#ADC0D1"></path>
            <path d="M19,156 C17.296,154.39232 16.2616,152.075669 15,150 C16.6048,151.713136 17.6192,154.050116 19,156 Z" id="Path" fill="#ADC0D1"></path>
            <path d="M31,171 C28.3452,168.68374 26.2908,165.713358 24,163 C26.5904,165.386516 28.6208,168.383516 31,171 Z" id="Path" fill="#ADC0D1"></path>
            <path d="M46,182 C44.9364023,181.087759 43.7042653,180.406841 43,179 C43.9588742,180.057156 45.2260281,180.689469 46,182 Z" id="Path" fill="#ADC0D1"></path>
            <path d="M57,188 C55.8640777,187.4996 54.6829933,187.0544 54,186 C54.9657467,186.7088 56.1880659,187.104 57,188 Z" id="Path" fill="#ADC0D1"></path>
            <path d="M142,188 C142.812023,187.104 144.034475,186.7088 145,186 C144.316932,187.0544 143.136046,187.4996 142,188 Z" id="Path" fill="#ADC0D1"></path>
            <path d="M153,182 C153.773972,180.689469 155.041126,180.057156 156,179 C155.295735,180.406841 154.063598,181.087759 153,182 Z" id="Path" fill="#ADC0D1"></path>
            <path d="M168,171 C170.3792,168.383516 172.4096,165.386516 175,163 C172.7092,165.713358 170.6548,168.68374 168,171 Z" id="Path" fill="#ADC0D1"></path>
            <path d="M184,150 C182.7384,152.075669 181.704,154.39232 180,156 C181.3808,154.050116 182.3952,151.713136 184,150 Z" id="Path" fill="#ADC0D1"></path>
            <path d="M189,140 C188.177891,141.8248 187.446228,143.7296 186,145 C187.044848,143.3736 187.745463,141.4408 189,140 Z" id="Path" fill="#ADC0D1"></path>
            <path d="M186,52 C187.445778,53.2704 188.177891,55.1752 189,57 C187.745463,55.5592 187.044848,53.6264 186,52 Z" id="Path" fill="#ADC0D1"></path>
            <path d="M180,41 C181.704,42.6076798 182.7384,44.9239077 184,47 C182.3952,45.2868638 181.3808,42.9498835 180,41 Z" id="Path" fill="#ADC0D1"></path>
            <path d="M168,26 C170.6548,28.3162603 172.7092,31.2866416 175,34 C172.4096,31.6139203 170.3792,28.6164839 168,26 Z" id="Path" fill="#ADC0D1"></path>
            <path d="M153,15 C154.063598,15.9125544 155.295735,16.5933703 156,18 C155.041126,16.9430028 153.773972,16.3103345 153,15 Z" id="Path" fill="#ADC0D1"></path>
            <path d="M142,9 C143.136046,9.5004 144.316932,9.946 145,11 C144.034475,10.2912 142.812023,9.896 142,9 Z" id="Path" fill="#ADC0D1"></path>
            <path d="M44,20 C44.7042653,18.5933703 45.9364023,17.9125544 47,17 C46.2257009,18.3107845 44.958547,18.9430028 44,20 Z" id="Path" fill="#ADC0D1"></path>
            <path d="M33,29 C34.3484,26.9922002 36.2748,25.604097 38,24 C36.5868,25.9379446 34.6204,27.2836205 33,29 Z" id="Path" fill="#ADC0D1"></path>
            <path d="M17,48 C18.2616,45.9243312 19.296,43.6076798 21,42 C19.6192,43.9498835 18.6044,46.2872874 17,48 Z" id="Path" fill="#ADC0D1"></path>
            <path d="M12,58 C12.8221089,56.1752 13.5542223,54.2704 15,53 C13.9547023,54.6268 13.2545373,56.5596 12,58 Z" id="Path" fill="#ADC0D1"></path>
            <path d="M12,139 C13.2545373,140.4408 13.9551522,142.3736 15,144 C13.5537723,142.7296 12.8221089,140.8248 12,139 Z" id="Path" fill="#ADC0D1"></path>
            <path d="M17,149 C18.6044,150.712713 19.6192,153.050116 21,155 C19.296,153.39232 18.2616,151.075669 17,149 Z" id="Path" fill="#ADC0D1"></path>
            <path d="M33,167 C34.6204,168.71638 36.5868,170.062055 38,172 C36.2748,170.396332 34.3484,169.008228 33,167 Z" id="Path" fill="#ADC0D1"></path>
            <path d="M44,176 C44.958547,177.056997 46.2257009,177.689216 47,179 C45.9360751,178.087446 44.703938,177.40663 44,176 Z" id="Path" fill="#ADC0D1"></path>
            <path d="M152,179 C152.774056,177.689216 154.041348,177.056997 155,176 C154.295985,177.40663 153.063714,178.087446 152,179 Z" id="Path" fill="#ADC0D1"></path>
            <path d="M161,172 C162.4132,170.062055 164.3796,168.71638 166,167 C164.652,169.008228 162.7252,170.396332 161,172 Z" id="Path" fill="#ADC0D1"></path>
            <path d="M178,155 C179.3808,153.050116 180.3956,150.712713 182,149 C180.7384,151.075669 179.704,153.39232 178,155 Z" id="Path" fill="#ADC0D1"></path>
            <path d="M184,144 C185.044554,142.3736 185.745725,140.4408 187,139 C186.178218,140.8248 185.445995,142.7296 184,144 Z" id="Path" fill="#ADC0D1"></path>
            <path d="M187,58 C185.745725,56.5596 185.044554,54.6268 184,53 C185.445995,54.2704 186.178218,56.1752 187,58 Z" id="Path" fill="#ADC0D1"></path>
            <path d="M182,48 C180.3956,46.2872874 179.3808,43.9498835 178,42 C179.704,43.6076798 180.7384,45.9243312 182,48 Z" id="Path" fill="#ADC0D1"></path>
            <path d="M161,24 C162.7252,25.6036685 164.652,26.9917717 166,29 C164.3796,27.2836205 162.4132,25.9379446 161,24 Z" id="Path" fill="#ADC0D1"></path>
            <path d="M155,20 C154.041348,18.9430028 152.774056,18.3107845 152,17 C153.063714,17.9125544 154.295985,18.5933703 155,20 Z" id="Path" fill="#ADC0D1"></path>
            <path d="M78,79 C79.4728,80.194 80.806,81.5272 82,83 C80.5272,81.8064 79.194,80.4728 78,79 Z" id="Path" fill="#FFCE92"></path>
            <path d="M122,108 C123.462064,109.204837 124.795274,110.53817 126,112 C124.537936,110.795163 123.204726,109.46183 122,108 Z" id="Path" fill="#FFCE92"></path>
            <path d="M151,176 C151.774299,174.689666 153.041453,174.056997 154,173 C153.296062,174.40663 152.063598,175.087896 151,176 Z" id="Path" fill="#FFCE92"></path>
            <path d="M157,172 C161.444041,168.111222 165.90204,164.235609 170,160 C166.196804,164.531422 161.763437,168.430487 157,172 Z" id="Path" fill="#FFCE92"></path>
            <path d="M179,148 C177.7388,150.075815 176.704,152.392207 175,154 C176.3808,152.049979 177.3956,149.712834 179,148 Z" id="Path" fill="#FFCE92"></path>
            <path d="M184,137 C183.177891,138.8248 182.445778,140.7296 181,142 C182.044848,140.3732 182.745463,138.4404 184,137 Z" id="Path" fill="#FFCE92"></path>
            <path d="M181,55 C182.445778,56.2704 183.177891,58.1752 184,60 C182.745463,58.5596 182.044848,56.6268 181,55 Z" id="Path" fill="#FFCE92"></path>
            <path d="M175,43 C176.704,44.6076798 177.7384,46.9239077 179,49 C177.3956,47.2868638 176.3808,44.94946 175,43 Z" id="Path" fill="#FFCE92"></path>
            <path d="M157,25 C161.763437,28.5695135 166.196804,32.4685775 170,37 C165.90204,32.7643913 161.444041,28.8887784 157,25 Z" id="Path" fill="#FFCE92"></path>
            <path d="M151,20 C152.063598,20.9125544 153.296062,21.5933703 154,23 C153.041453,21.9430028 151.774299,21.3107845 151,20 Z" id="Path" fill="#FFCE92"></path>
            <path d="M57,17 C57.6829933,15.9456 58.8637504,15.5004 60,15 C59.1877386,15.8964 57.9654194,16.2912 57,17 Z" id="Path" fill="#ADC0D1"></path>
            <path d="M45,23 C45.7042653,21.5933703 46.9364023,20.9125544 48,20 C47.2257009,21.3107845 45.958547,21.9430028 45,23 Z" id="Path" fill="#ADC0D1"></path>
            <path d="M30,37 C31.3680421,35.3736179 32.4728145,33.4416731 34,32 C32.7696852,33.7862347 31.6110034,35.6556098 30,37 Z" id="Path" fill="#ADC0D1"></path>
            <path d="M20,49 C21.2616,46.9239077 22.296,44.6076798 24,43 C22.6188,44.9498835 21.6044,47.2872874 20,49 Z" id="Path" fill="#ADC0D1"></path>
            <path d="M15,60 C15.8221089,58.1752 16.5542223,56.2704 18,55 C16.9551522,56.6268 16.2545373,58.5596 15,60 Z" id="Path" fill="#ADC0D1"></path>
            <path d="M15,137 C16.2545373,138.4404 16.9547023,140.3732 18,142 C16.5542223,140.7296 15.8221089,138.8248 15,137 Z" id="Path" fill="#ADC0D1"></path>
            <path d="M24,154 C22.296,152.392207 21.2616,150.075815 20,148 C21.6044,149.712834 22.6188,152.049979 24,154 Z" id="Path" fill="#ADC0D1"></path>
            <path d="M34,165 C32.4724453,163.558755 31.3680421,161.626382 30,160 C31.6110034,161.34439 32.7696852,163.213337 34,165 Z" id="Path" fill="#ADC0D1"></path>
            <path d="M48,176 C46.9364023,175.087896 45.7042653,174.40663 45,173 C45.958547,174.056997 47.2257009,174.689666 48,176 Z" id="Path" fill="#ADC0D1"></path>
            <path d="M60,182 C58.8640777,181.4992 57.6829933,181.054 57,180 C57.9654194,180.7084 59.1877386,181.104 60,182 Z" id="Path" fill="#ADC0D1"></path>
            <path d="M117,179 C117.874475,177.874595 118.874595,176.874475 120,176 C119.125525,177.125765 118.125765,178.125525 117,179 Z" id="Path" fill="#ADC0D1"></path>
            <path d="M116,110 C117.4728,111.194 118.8064,112.5272 120,114 C118.5272,112.8064 117.194,111.4728 116,110 Z" id="Path" fill="#ADC0D1"></path>
            <path d="M129.071398,92.2837909 C130.594069,93.0265522 131.477329,94.2548273 133,94.9972629 C131.332905,95.0829035 129.260393,93.1385688 128,92.0122157 C128.514271,91.8676362 128.871261,93.0698609 129.071398,92.2837909 Z" id="Path" fill="#FFCE92"></path>
            <path d="M138.714021,47.3796109 C147.306423,55.5457164 150.481156,69.0867383 156.787652,79.5207102 C165.608809,82.8364397 173.453565,87.120458 177.930846,94.7453773 C173.818181,95.62719 169.559832,96.3644699 165.313352,97.1135235 C169.925676,102.687376 177.657078,105.166357 181,112 C177.734011,109.842969 173.547277,107.452087 169.405556,105.233752 C165.239283,103.002019 161.320588,100.334251 159.856806,95.7607611 C163.360552,93.7109119 167.963463,92.7511489 173.838642,93.0540183 C171.203262,89.8954073 168.169301,88.5316831 164.972062,86.6259608 C161.704027,84.6776094 157.587269,84.4559383 154.400669,82.227859 C151.088848,79.9116796 148.912204,72.6448445 146.89843,68.3563603 C141.928448,57.7746077 138.255694,50.4651435 129.50656,43.6587023 C124.358976,39.6540059 118.858644,35.6984344 109.045537,35.8770705 C105.870395,33.383067 101.14308,29.2180041 96.0867521,30.8021814 C96.1497721,35.3176147 100.332005,38.1818821 102.56594,42.6437245 C104.718849,46.9427645 105.435803,51.906006 107.681196,55.5002454 C108.388738,56.6321486 110.46103,58.1850647 110.750349,59.5601566 C111.560197,63.4044866 107.896855,66.2046073 108.363366,70.0481253 C107.796596,71.0748768 107.796596,74.4344534 108.363366,75.4612049 C108.935456,79.7427873 109.832877,83.7020127 112.796452,85.610983 C113.82073,80.6497715 114.428423,75.275667 117.570827,72.4162715 C120.91293,79.4756452 124.313143,86.4777741 128.82439,92.3776371 C128.633284,93.3576996 128.292403,91.8587804 127.801339,92.0394464 C123.547901,89.041608 120.115769,85.2293514 118.252997,79.8597128 C116.509309,83.1941179 117.907206,88.5925818 113.819503,88.994513 C105.060139,89.8564322 103.515741,67.3024073 108.022486,60.5751344 C103.922096,57.5561844 103.347142,50.3116788 100.178957,43.6587023 C98.323142,39.7615935 92.6439803,36.5238143 93.0175986,31.4789686 C93.6437059,23.0286694 107.355865,28.3885642 110.750349,32.4939464 C122.589507,32.7030319 128.627146,38.6670415 135.303578,43.9968929 C136.297574,45.2656152 137.434389,46.3934585 138.714021,47.3796109 Z" id="Path" fill="#FEFEFE"></path>
            <path d="M136,43 C137.12563,43.874475 138.12563,44.874595 139,46 C137.87437,45.125885 136.87437,44.125765 136,43 Z" id="Path" fill="#FFCE92"></path>
            <path d="M114.254036,47 C113.775042,44.458451 111.779667,43.4380894 111,41.1985152 C115.399457,39.8531173 117.880767,45.7411914 114.254036,47 Z" id="Path" fill="#FEFEFE"></path>
            <path d="M61,150 C62.125765,150.874475 63.125885,151.874235 64,153 C62.874235,152.125525 61.874475,151.125405 61,150 Z" id="Path" fill="#ADC0D1"></path>
            <path d="M71,104.653071 C69.4684,103.632618 68.5316,102.020852 67,101.000399 C68.7092,100.963342 70.6912,103.517862 72,104.984987 C71.5196,105.162301 71.1864,103.691191 71,104.653071 Z" id="Path" fill="#ADC0D1"></path>
            <path d="M61.2857181,149.629277 C52.6909968,141.464485 49.5318648,127.905765 43.211964,117.483757 C34.4126356,114.146051 26.5684127,109.861444 22.0691049,102.256996 C26.1432394,101.336488 30.5058697,100.702648 34.6863998,99.8885241 C30.0835608,94.3045662 22.3846089,91.7931657 19,85 C21.3018287,85.4088893 22.5720289,87.71483 24.7973346,89.0604696 C30.4137965,92.4570525 38.2502444,94.12956 40.1428591,101.241879 C36.5679657,103.221358 32.0559723,104.270989 26.1612448,103.948994 C29.0126478,106.747469 31.3848613,108.696495 34.6863998,110.716172 C37.905277,112.6855 42.3280618,112.488973 45.5989092,114.776642 C48.8677105,117.063093 51.125344,124.343921 53.1010292,128.650049 C57.9338464,139.182907 61.7571326,146.55469 70.4926236,153.351104 C75.5947036,157.320619 81.14119,161.335611 90.953323,161.133806 C94.1280051,163.628558 98.8552451,167.793788 103.911902,166.209393 C103.886122,161.677097 99.6675348,158.830301 97.4328172,154.366221 C95.2803517,150.06659 94.5634088,145.102666 92.3176424,141.508338 C91.6047916,140.36694 89.5415347,138.839391 89.2485375,137.447868 C88.4391122,133.60301 92.1019866,130.802504 91.6354827,126.958051 C92.2022441,125.819495 92.2022441,122.344545 91.6354827,121.20599 C90.9111739,117.187343 90.2011877,113.15489 87.2024676,111.393053 C85.8258717,116.117815 86.1413757,122.521582 81.7464175,124.251342 C79.5031064,116.664354 75.3504029,110.972388 71.5160678,104.964111 C71.7071707,103.983914 72.048046,105.483039 72.5391028,105.302348 C76.7192236,108.147925 79.9196862,111.965173 81.7464175,117.14552 C83.5273167,113.835019 82.1093903,108.445558 86.1794326,108.009463 C94.9108314,107.073119 96.4654354,129.772363 91.9767671,136.432751 C96.0529477,139.454552 96.6544922,146.702085 99.8201716,153.351104 C101.659998,157.215453 107.366487,160.539759 106.981416,165.532513 C106.331994,173.958799 92.6765231,168.619282 89.2489467,164.517395 C77.4103861,164.308687 71.3728429,158.343857 64.6961075,153.012867 C63.7017175,151.743158 62.564921,150.615565 61.2857181,149.629277 Z" id="Path" fill="#FEFEFE"></path>
            <path d="M85.7276969,150 C86.135644,152.619101 88.268313,153.515086 89,155.810394 C84.5282887,157.110357 82.1678674,151.348336 85.7276969,150 Z" id="Path" fill="#FEFEFE"></path>
            <path d="M93,3 C96.1794727,1.66666667 101.820527,1.66666667 105,3 C101.000565,3 97.0002824,3 93,3 Z" id="Path" fill="#ADC0D1"></path>
            <path d="M93,194 C96.9998588,194 101.000141,194 105,194 C101.820527,195.333333 96.1798962,195.333333 93,194 Z" id="Path" fill="#ADC0D1"></path>
        </g>
        <g id="MySQL" transform="translate(650.000000, 355.000000)" fill-rule="nonzero">
            <polygon id="path1963" fill-opacity="0" fill="#9C9C9C" points="0 123 0 0 238 0 476 0 476 123 476 246 238 246 0 246"></polygon>
            <path d="M347.437747,229.613018 L341.637032,224.276411 L321.91467,223.891347 C305.089432,223.562852 301.489694,223.149411 297.409198,221.076852 C288.635555,216.62055 287.69785,214.160837 287.182757,194.251612 C286.578748,170.905302 287.464666,164.31698 291.884606,159.285728 C296.765871,153.729331 302.175329,152.320201 321.519074,151.566179 C348.104701,150.529857 360.494587,153.774968 364.250065,162.758124 C366.38552,167.866195 366.747218,207.401483 364.707852,212.798449 C363.997168,214.679204 362.036169,217.324392 360.350066,218.676649 L357.284416,221.135305 L364.072983,227.552097 C367.806681,231.081341 370.861538,234.211261 370.861538,234.507481 C370.861538,234.803714 366.896346,235.024367 362.05,234.997837 C353.354385,234.950245 353.162148,234.879403 347.437747,229.613018 Z M323.22844,207.686832 L317.52611,202.248772 L326.688093,202.248772 C335.64741,202.248772 335.972331,202.356323 341.377049,207.11113 C349.727519,214.457458 350.2,213.451115 350.2,188.319078 C350.2,161.275516 351.515727,162.770539 327.715385,162.770539 C303.955636,162.770539 305.230769,161.347658 305.230769,187.860462 C305.230769,213.222737 305.215553,213.195782 319.511538,213.153049 L328.930769,213.124892 L323.22844,207.686832 Z M208,218.729537 L208,213.181206 L232.037257,213.181206 C261.253864,213.181206 261.785242,212.986305 261.230467,202.473433 C260.752955,193.424427 259.045558,192.572523 241.339823,192.548958 C225.376937,192.527712 217.29181,190.498361 212.261017,185.250246 C209.271377,182.131454 208.653926,180.377964 208.294403,173.985576 C207.7428,164.177919 210.289566,159.017713 217.723077,154.881403 C223.035924,151.925127 223.982915,151.826128 250.842308,151.419052 L278.492308,151 L278.492308,156.581591 L278.492308,162.163181 L255.096154,162.284264 C242.228269,162.350855 230.332692,162.783427 228.661538,163.245528 C225.904657,164.007835 225.590006,164.766752 225.26624,171.43476 C224.761479,181.830277 225.218062,182.072236 246.769615,182.829611 C262.765401,183.391745 265.051454,183.751653 269.951411,186.479149 C277.224236,190.527478 278.668769,193.635982 278.217497,204.267081 C277.801216,214.074118 276.3126,216.53671 268.161538,220.902432 C263.672783,223.30662 261.179786,223.535861 235.65,223.892076 L208,224.277869 L208,218.729537 Z M391.023906,222.755333 C384.109036,221.134236 378.675927,217.363044 376.777618,212.866789 C375.530475,209.912858 375.115385,201.801332 375.115385,180.383904 L375.115385,151.838105 L383.015385,151.838105 L390.915385,151.838105 L391.218441,180.383904 C391.5091,207.761294 391.626543,209.016714 394.087709,211.055455 C396.341907,212.922763 399.592866,213.181206 420.826948,213.181206 L445,213.181206 L445,218.647423 L445,224.11364 L420.388462,223.991622 C406.852115,223.924509 393.638065,223.368181 391.023906,222.755333 Z" id="path1961" fill="#E48C00"></path>
            <path d="M463.5,202 C457.159577,202 452,207.159577 452,213.5 C452,219.840423 457.159577,225 463.5,225 C469.840423,225 475,219.840423 475,213.5 C475,207.159577 469.840423,202 463.5,202 Z M463.65082,204.940984 C468.348623,204.940984 472.134426,208.764479 472.134426,213.462295 C472.134426,218.160111 468.348635,221.983607 463.65082,221.983607 C458.952992,221.983607 455.129508,218.160111 455.129508,213.462295 C455.129508,208.764492 458.953004,204.940984 463.65082,204.940984 Z" id="path1895" fill="#E48C00"></path>
            <path d="M463.263503,212.764245 C463.892232,212.764245 464.341693,212.633639 464.611907,212.372403 C464.887307,212.111191 465.025006,211.681645 465.025006,211.083727 C465.025006,210.491642 464.887307,210.067891 464.611907,209.812461 C464.341693,209.557056 463.892232,209.429348 463.263503,209.429348 L462.000824,209.429348 L462.000824,212.764245 L463.263503,212.764245 M462.000824,215.080384 L462.000824,220 L459,220 L459,207 L463.583058,207 C465.11594,207 466.238321,207.28735 466.950202,207.862027 C467.667279,208.436715 468.025806,209.345175 468.025818,210.587405 C468.025806,211.446534 467.838742,212.151829 467.464627,212.703289 C467.095684,213.254761 466.537092,213.661091 465.788849,213.922303 C466.19935,214.026807 466.565683,214.264803 466.887848,214.636302 C467.215197,215.002018 467.560995,215.617431 467.824941,216.375923 L469,220 L466.311068,220 L464.892515,216.769595 C464.606699,216.119462 464.315723,215.675392 464.019551,215.437384 C463.72854,215.199388 463.338836,215.080384 462.850404,215.080384 L462.000824,215.080384" id="text1905" fill="#E48C00"></path>
            <path d="M122.714972,240.4936 L122.714972,234.987187 L150.200702,234.618358 C176.049178,234.271487 177.792286,234.104646 179.463728,231.817456 C180.441252,230.479829 181.080898,228.016259 180.885169,226.342857 L180.529288,223.300318 L157.403562,222.692029 C135.841975,222.124885 133.968085,221.891241 129.698151,219.237703 C122.551072,214.796173 122.106401,213.235231 122.106401,192.588171 L122.106401,174.041812 L129.713548,174.035364 L137.320694,174.028928 L137.320694,191.480745 C137.320694,214.685404 136.097916,213.567698 161.484097,213.567698 L180.529288,213.567698 L180.863005,193.190024 L181.196721,172.812351 L189.078723,172.812351 L196.960726,172.812351 L196.958839,201.706067 C196.956612,235.685491 196.57449,237.179849 186.615006,242.15727 C180.720112,245.103346 179.622906,245.211281 151.62213,245.599357 L122.714972,246 L122.714972,240.4936 Z M48.9788007,223.817278 C46.916059,223.218613 44.3839015,221.762479 43.351776,220.581401 C42.3196626,219.400335 35.937802,206.11616 29.1698634,191.061014 L16.8645427,163.688019 L16.8440094,193.798313 L16.8234884,223.908607 L8.91205568,223.908607 L1.00031081,223.908607 L1.00031081,190.723425 C1.00031081,152.292885 0.78919297,153.104598 11.3714402,150.908748 C19.1465528,149.295396 24.7477011,150.590711 28.6438261,154.903137 C29.9864571,156.389235 36.2139231,169.512384 42.4826381,184.065693 C48.7513531,198.619001 54.1690171,210.524429 54.5219035,210.522203 C54.8747899,210.519976 60.3667969,198.703043 66.7263717,184.262353 C73.2964271,169.343706 79.7122826,156.537901 81.5848943,154.605295 C86.5580818,149.472761 93.8129995,148.709529 103.387075,152.311645 C108.894418,154.383707 109.326394,157.250451 109.326394,191.726542 L109.326394,223.908607 L101.414961,223.908607 L93.5035286,223.908607 L93.4497308,193.798313 C93.3869384,158.647507 95.0058245,158.546276 78.8589676,194.710746 C73.3320894,207.089422 68.011091,218.43902 67.0345281,219.932077 C66.0579652,221.425134 63.2613346,223.201337 60.8198056,223.879178 C55.6696698,225.309009 54.0902435,225.300749 48.9788007,223.817278 Z M466.54949,168.964316 C463.87646,166.950053 457.855434,163.370225 453.169431,161.009164 C440.02304,154.385289 430.652277,145.693256 430.652277,140.122949 C430.652277,138.42114 440.96842,135.334561 449.839254,134.382236 C455.805131,133.741769 457.184581,133.228008 456.181618,132.020068 C453.292923,128.541009 435.59803,118.11904 428.21799,115.549981 C423.866702,114.035257 419.322983,111.958145 418.120835,110.934176 C415.858603,109.007239 409.81293,96.9917234 400.689734,76.2905862 C394.332204,61.8649452 387.482278,52.0324805 376.291398,41.2688717 C361.666287,27.2021697 349.571533,20.725184 334.621456,18.9538106 C330.351948,18.4479333 326.292702,16.9663122 323.031171,14.7233569 C313.064798,7.86949979 303.83868,5.46667402 302.352487,9.33784803 C301.558946,11.4048254 302.588796,13.3387092 310.959846,25.5010172 C313.929092,29.8150376 317.622757,37.6544807 319.887253,44.448543 C322.377845,51.9209204 325.226484,57.8039851 327.90678,61.0106037 C332.752484,66.8078389 332.797189,67.1827516 329.741027,76.3937398 C326.382588,86.5157622 325.753677,92.8565764 327.254014,101.468169 C328.582708,109.094516 332.703494,118.096314 335.248237,118.931434 C336.094942,119.2093 336.930207,116.522854 337.464363,111.803822 C338.318603,104.256772 340.429714,98.6744204 343.945834,94.665031 C345.651783,92.7197479 346.108479,93.2692395 349.755942,101.655765 C354.702157,113.028502 363.931915,127.953183 370.366624,134.983639 C377.649025,142.940263 371.721183,138.989184 361.628678,129.159554 C356.744183,124.402286 351.387292,117.756171 349.546228,114.169287 C346.430706,108.099393 346.187679,107.901954 345.358256,110.766897 C344.873967,112.439691 344.423137,115.502741 344.356413,117.57366 C344.150607,123.960802 337.945439,127.295623 332.092427,124.164639 C328.850407,122.430372 324.784916,115.333892 322.831243,107.998855 C320.43896,99.0170817 320.705684,88.4340616 323.603009,77.3775617 C326.070037,67.9631009 326.071498,67.8340464 323.740364,65.2868007 C320.408689,61.6462898 316.796073,54.0854551 313.108336,43.0351354 C311.192016,37.2928774 307.922464,30.881015 304.870173,26.879436 C302.086724,23.2303118 299.144121,19.1243626 298.331057,17.7551046 C296.106849,14.0094084 296.451435,6.79969018 299.005343,3.64720933 C303.173864,-1.49830531 317.336862,1.15506244 327.736648,9.02987143 C330.117904,10.8329853 333.862409,12.0929338 338.149371,12.5335417 C341.83123,12.9119581 347.182122,14.0316961 350.04023,15.0218685 C362.258209,19.2546581 379.765345,32.491423 391.232955,46.1668128 C398.905146,55.3160598 401.633945,60.18928 415.347622,89.2319418 L423.274403,106.019179 L431.478011,109.737149 C446.219749,116.418264 466.960142,132.661789 465.680352,136.523863 C465.385828,137.412682 462.724239,138.577008 459.765704,139.111268 C446.479621,141.510517 441.568058,142.892999 441.967354,144.121073 C442.20309,144.846129 446.424594,148.204017 451.348475,151.583036 C459.436479,157.133452 473.181851,170.855133 471.918651,172.117758 C471.638635,172.397632 469.222507,170.978591 466.54949,168.964316 Z M335.54926,36.8579996 C331.544822,30.424251 331.55081,30.4727748 334.761659,30.4727748 C338.580581,30.4727748 340.583658,32.6246261 340.583658,36.727181 C340.583658,41.8411741 338.681616,41.8906036 335.54926,36.8579996 Z" id="path1959" fill="#015F8B"></path>
        </g>
    </g>
</svg>