<?xml version="1.0" encoding="UTF-8"?>
<svg width="1200px" height="650px" viewBox="0 0 1200 650" version="1.1" xmlns="http://www.w3.org/2000/svg" xmlns:xlink="http://www.w3.org/1999/xlink">
    <title>zero-downtime5</title>
    <g id="zero-downtime5" stroke="none" stroke-width="1" fill="none" fill-rule="evenodd">
        <g id="Group-2" transform="translate(169.000000, 30.000000)">
            <path d="M173.5,406 C241.154882,406 296,351.154882 296,283.5 C296,215.845118 241.154882,161 173.5,161 C105.845118,161 51,215.845118 51,283.5 C51,351.154882 105.845118,406 173.5,406 Z" id="Oval" stroke-opacity="0.986243207" stroke="#EEE13E" stroke-width="10" stroke-linecap="round" stroke-dasharray="230,140" transform="translate(173.500000, 283.500000) rotate(-315.000000) translate(-173.500000, -283.500000) "></path>
            <text id="Client" font-family="LucidaGrande-Bold, Lucida Grande" font-size="50" font-weight="bold" fill="#A5A5A5">
                <tspan x="98.2314453" y="302">Client</tspan>
            </text>
            <text id="Service-Load-Balance" font-family="LucidaGrande-Bold, Lucida Grande" font-size="25" font-weight="bold" fill="#A5A5A5">
                <tspan x="376.390869" y="345">Service Load</tspan>
                <tspan x="402.495605" y="374">Balancer</tspan>
            </text>
            <path id="Path-15" d="M402,267 L416,274 L402,281 L402,275 L280,275 C279.447715,275 279,274.552285 279,274 C279,273.487164 279.38604,273.064493 279.883379,273.006728 L280,273 L402,273 L402,267 Z" fill="#A5A5A5" fill-rule="nonzero"></path>
            <path id="Path-15-Copy" d="M683,260 L712,274.5 L683,289 L683,277 L497.5,277 C496.119288,277 495,275.880712 495,274.5 C495,273.174517 496.031536,272.089961 497.335624,272.005318 L497.5,272 L683,272 L683,260 Z" fill="#A5A5A5" fill-rule="nonzero"></path>
            <circle id="Oval" stroke="#979797" stroke-width="5" cx="457.5" cy="274.5" r="30.5"></circle>
            <g id="Group" transform="translate(729.000000, 0.000000)">
                <g id="Group_2669-Copy" fill="#0F50C7" fill-opacity="0.4" fill-rule="nonzero" stroke="#0F50C7" stroke-width="2">
                    <path d="M131.586819,58.6713197 C132.147346,63.6592378 132.137528,68.694791 131.557553,73.6804853 C131.328582,75.6110046 129.635246,77.0289456 127.694502,76.9152697 L126.878968,76.8938085 C120.997645,76.9245556 115.694471,80.4400455 113.375847,85.8450696 C111.003216,91.5647794 112.48782,98.1586944 117.082816,102.309693 C118.521727,103.614059 118.692907,105.814561 117.473023,107.325755 C114.328777,111.241196 110.74605,114.7833 106.795002,117.882702 C105.279731,119.062225 103.112867,118.881443 101.814006,117.467136 C97.5972364,113.064209 91.1612976,111.599731 85.4545673,113.744597 C79.8036749,116.093565 76.2046325,121.703596 76.4251716,127.819226 C76.492183,129.737743 75.0707865,131.384403 73.163039,131.598344 C68.2276956,132.146631 63.246096,132.133541 58.3137023,131.559324 C56.3827877,131.336076 54.961775,129.644575 55.0749821,127.704116 C55.4299549,121.52064 51.8533566,115.783452 46.1450893,113.379757 C40.4155184,111.177291 33.9234595,112.639971 29.6920008,117.086688 C28.3853863,118.527562 26.1815123,118.698735 24.6680825,117.476891 C20.7993007,114.363402 17.2968356,110.820392 14.2280877,106.916042 C13.0395674,105.407656 13.2157029,103.237893 14.6319522,101.940951 C19.1469635,97.8038382 20.6184451,91.2981215 18.3233127,85.6207028 C16.0886948,80.0975449 10.6979508,76.5078826 4.74019849,76.5757929 C2.72089756,76.6253857 0.931158231,75.2834986 0.412800132,73.3312534 C-0.147219281,68.3433075 -0.137400847,63.3078121 0.442065676,58.3220879 C0.625756498,56.3886394 2.31456026,54.9523497 4.25243943,55.0814504 C10.4003227,55.2738038 16.0626085,51.7561617 18.6140171,46.1594546 C20.9917978,40.4428295 19.5142965,33.848445 14.9246076,29.6928801 C13.4894573,28.3866713 13.3185165,26.1892507 14.5344004,24.6768181 C17.6777498,20.7611499 21.2605836,17.2195952 25.2124216,14.121822 C26.7278112,12.9403829 28.8969605,13.1230552 30.1934171,14.5412904 C34.409597,18.9295639 40.8308093,20.3918429 46.5313945,18.2618778 C52.1842192,15.9092674 55.7841765,10.296347 55.5646922,4.17749376 C55.4989935,2.25769883 56.9233701,0.611391681 58.8326779,0.400326912 C63.7681171,-0.146187274 68.7495159,-0.133097412 73.6820147,0.43934723 C75.6131312,0.660709729 77.0348667,2.35221482 76.9207348,4.29260369 C76.5697083,10.4753047 80.1415374,16.2117245 85.8447745,18.6247667 C91.5771648,20.8225231 98.068738,19.3606456 102.305667,14.9178365 C103.608991,13.4913723 105.794542,13.3182696 107.306173,14.5217802 C111.181732,17.6321821 114.689632,21.1747384 117.761776,25.0806784 C118.952992,26.5886093 118.777606,28.7604674 117.359863,30.0577201 C112.876505,34.1282277 111.377317,40.5469754 113.593749,46.1822791 C115.81018,51.8175828 121.280401,55.4952369 127.335511,55.4209272 C129.337268,55.3802668 131.101251,56.7289427 131.586819,58.6713197 L131.586819,58.6713197 Z M66.5939,108.617328 C89.8000722,108.617328 108.612392,89.8052038 108.612392,66.599273 C108.612392,43.3933422 89.8000722,24.5812184 66.5939,24.5812184 C63.4692134,24.5946198 60.3547919,24.9399363 57.3030655,25.6113548 C36.4368362,30.3462064 22.4598005,50.0032394 24.8398952,71.2669304 C27.2199899,92.5306214 45.1971995,108.611015 66.5939,108.615377 L66.5939,108.617328 Z" id="Path_1309-2"></path>
                    <g id="Group_2378-2" transform="translate(34.813187, 34.813187)">
                        <path d="M31.5019855,63.5104842 C44.1303594,63.5104842 55.5149665,55.9101374 60.3461673,44.254155 C65.1773681,32.5981727 62.5035147,19.182544 53.5716591,10.2641515 C44.6398035,1.34575893 31.2093389,-1.31865611 19.5440673,3.51355643 C7.87879572,8.34576898 0.276537444,19.7227619 0.282887363,32.3384469 C0.291563391,49.5568257 14.2662883,63.5104842 31.5019855,63.5104842 Z" id="Path_1312-2"></path>
                    </g>
                </g>
                <text id="SVC-v1.0" font-family="Helvetica" font-size="17" font-weight="normal" fill="#A5A5A5">
                    <tspan x="48.0227051" y="153">SVC</tspan>
                    <tspan x="49.4338379" y="176">v1.0</tspan>
                </text>
            </g>
            <g id="Group-Copy" transform="translate(729.000000, 210.000000)">
                <g id="Group_2669-Copy" fill="#0F50C7" fill-opacity="0.4" fill-rule="nonzero" stroke="#0F50C7" stroke-width="2">
                    <path d="M131.586819,58.6713197 C132.147346,63.6592378 132.137528,68.694791 131.557553,73.6804853 C131.328582,75.6110046 129.635246,77.0289456 127.694502,76.9152697 L126.878968,76.8938085 C120.997645,76.9245556 115.694471,80.4400455 113.375847,85.8450696 C111.003216,91.5647794 112.48782,98.1586944 117.082816,102.309693 C118.521727,103.614059 118.692907,105.814561 117.473023,107.325755 C114.328777,111.241196 110.74605,114.7833 106.795002,117.882702 C105.279731,119.062225 103.112867,118.881443 101.814006,117.467136 C97.5972364,113.064209 91.1612976,111.599731 85.4545673,113.744597 C79.8036749,116.093565 76.2046325,121.703596 76.4251716,127.819226 C76.492183,129.737743 75.0707865,131.384403 73.163039,131.598344 C68.2276956,132.146631 63.246096,132.133541 58.3137023,131.559324 C56.3827877,131.336076 54.961775,129.644575 55.0749821,127.704116 C55.4299549,121.52064 51.8533566,115.783452 46.1450893,113.379757 C40.4155184,111.177291 33.9234595,112.639971 29.6920008,117.086688 C28.3853863,118.527562 26.1815123,118.698735 24.6680825,117.476891 C20.7993007,114.363402 17.2968356,110.820392 14.2280877,106.916042 C13.0395674,105.407656 13.2157029,103.237893 14.6319522,101.940951 C19.1469635,97.8038382 20.6184451,91.2981215 18.3233127,85.6207028 C16.0886948,80.0975449 10.6979508,76.5078826 4.74019849,76.5757929 C2.72089756,76.6253857 0.931158231,75.2834986 0.412800132,73.3312534 C-0.147219281,68.3433075 -0.137400847,63.3078121 0.442065676,58.3220879 C0.625756498,56.3886394 2.31456026,54.9523497 4.25243943,55.0814504 C10.4003227,55.2738038 16.0626085,51.7561617 18.6140171,46.1594546 C20.9917978,40.4428295 19.5142965,33.848445 14.9246076,29.6928801 C13.4894573,28.3866713 13.3185165,26.1892507 14.5344004,24.6768181 C17.6777498,20.7611499 21.2605836,17.2195952 25.2124216,14.121822 C26.7278112,12.9403829 28.8969605,13.1230552 30.1934171,14.5412904 C34.409597,18.9295639 40.8308093,20.3918429 46.5313945,18.2618778 C52.1842192,15.9092674 55.7841765,10.296347 55.5646922,4.17749376 C55.4989935,2.25769883 56.9233701,0.611391681 58.8326779,0.400326912 C63.7681171,-0.146187274 68.7495159,-0.133097412 73.6820147,0.43934723 C75.6131312,0.660709729 77.0348667,2.35221482 76.9207348,4.29260369 C76.5697083,10.4753047 80.1415374,16.2117245 85.8447745,18.6247667 C91.5771648,20.8225231 98.068738,19.3606456 102.305667,14.9178365 C103.608991,13.4913723 105.794542,13.3182696 107.306173,14.5217802 C111.181732,17.6321821 114.689632,21.1747384 117.761776,25.0806784 C118.952992,26.5886093 118.777606,28.7604674 117.359863,30.0577201 C112.876505,34.1282277 111.377317,40.5469754 113.593749,46.1822791 C115.81018,51.8175828 121.280401,55.4952369 127.335511,55.4209272 C129.337268,55.3802668 131.101251,56.7289427 131.586819,58.6713197 L131.586819,58.6713197 Z M66.5939,108.617328 C89.8000722,108.617328 108.612392,89.8052038 108.612392,66.599273 C108.612392,43.3933422 89.8000722,24.5812184 66.5939,24.5812184 C63.4692134,24.5946198 60.3547919,24.9399363 57.3030655,25.6113548 C36.4368362,30.3462064 22.4598005,50.0032394 24.8398952,71.2669304 C27.2199899,92.5306214 45.1971995,108.611015 66.5939,108.615377 L66.5939,108.617328 Z" id="Path_1309-2"></path>
                    <g id="Group_2378-2" transform="translate(34.813187, 34.813187)">
                        <path d="M31.5019855,63.5104842 C44.1303594,63.5104842 55.5149665,55.9101374 60.3461673,44.254155 C65.1773681,32.5981727 62.5035147,19.182544 53.5716591,10.2641515 C44.6398035,1.34575893 31.2093389,-1.31865611 19.5440673,3.51355643 C7.87879572,8.34576898 0.276537444,19.7227619 0.282887363,32.3384469 C0.291563391,49.5568257 14.2662883,63.5104842 31.5019855,63.5104842 Z" id="Path_1312-2"></path>
                    </g>
                </g>
                <text id="SVC-v1.1" font-family="Helvetica" font-size="17" font-weight="normal" fill="#A5A5A5">
                    <tspan x="48.0227051" y="153">SVC</tspan>
                    <tspan x="49.4338379" y="176">v1.1</tspan>
                </text>
            </g>
            <path id="Path-15-Copy-2" d="M508.302368,250.120462 C509.051705,251.211015 508.817842,252.685833 507.795486,253.495035 L507.65768,253.596722 L499.415786,259.259864 C498.277817,260.04178 496.721443,259.753144 495.939526,258.615176 C495.19019,257.524623 495.424052,256.049805 496.446408,255.240604 L496.584214,255.138917 L504.826109,249.475774 C505.964077,248.693858 507.520451,248.982494 508.302368,250.120462 Z M524.786156,238.794178 C525.535493,239.884731 525.301631,241.359549 524.279275,242.16875 L524.141468,242.270437 L515.899574,247.933579 C514.761606,248.715496 513.205232,248.426859 512.423315,247.288891 C511.673978,246.198339 511.90784,244.72352 512.930197,243.914319 L513.068003,243.812632 L521.309897,238.14949 C522.447865,237.367573 524.004239,237.65621 524.786156,238.794178 Z M541.269945,227.467894 C542.019282,228.558446 541.785419,230.033265 540.763063,230.842466 L540.625257,230.944153 L532.383362,236.607295 C531.245394,237.389212 529.68902,237.100575 528.907103,235.962607 C528.157766,234.872054 528.391629,233.397236 529.413985,232.588035 L529.551791,232.486348 L537.793686,226.823206 C538.931654,226.041289 540.488028,226.329926 541.269945,227.467894 Z M557.753733,216.141609 C558.50307,217.232162 558.269208,218.70698 557.246852,219.516181 L557.109045,219.617868 L548.867151,225.281011 C547.729183,226.062927 546.172809,225.774291 545.390892,224.636323 C544.641555,223.54577 544.875417,222.070952 545.897773,221.26175 L546.03558,221.160063 L554.277474,215.496921 C555.415442,214.715004 556.971816,215.003641 557.753733,216.141609 Z M574.237522,204.815325 C574.986859,205.905878 574.752996,207.380696 573.73064,208.189897 L573.592834,208.291584 L565.350939,213.954726 C564.212971,214.736643 562.656597,214.448006 561.87468,213.310038 C561.125343,212.219485 561.359206,210.744667 562.381562,209.935466 L562.519368,209.833779 L570.761263,204.170637 C571.899231,203.38872 573.455605,203.677357 574.237522,204.815325 Z M590.72131,193.489041 C591.470647,194.579593 591.236785,196.054411 590.214429,196.863613 L590.076622,196.9653 L581.834728,202.628442 C580.69676,203.410359 579.140386,203.121722 578.358469,201.983754 C577.609132,200.893201 577.842994,199.418383 578.86535,198.609182 L579.003157,198.507495 L587.245051,192.844352 C588.383019,192.062436 589.939393,192.351072 590.72131,193.489041 Z M607.205099,182.162756 C607.954435,183.253309 607.720573,184.728127 606.698217,185.537328 L606.560411,185.639015 L598.318516,191.302157 C597.180548,192.084074 595.624174,191.795438 594.842257,190.657469 C594.09292,189.566917 594.326783,188.092099 595.349139,187.282897 L595.486945,187.18121 L603.728839,181.518068 C604.866808,180.736151 606.423182,181.024788 607.205099,182.162756 Z M623.688887,170.836472 C624.438224,171.927025 624.204362,173.401843 623.182005,174.211044 L623.044199,174.312731 L614.802305,179.975873 C613.664337,180.75779 612.107962,180.469153 611.326046,179.331185 C610.576709,178.240632 610.810571,176.765814 611.832927,175.956613 L611.970734,175.854926 L620.212628,170.191784 C621.350596,169.409867 622.90697,169.698504 623.688887,170.836472 Z M640.172676,159.510187 C640.922012,160.60074 640.68815,162.075558 639.665794,162.88476 L639.527988,162.986446 L631.286093,168.649589 C630.148125,169.431505 628.591751,169.142869 627.809834,168.004901 C627.060497,166.914348 627.29436,165.43953 628.316716,164.630328 L628.454522,164.528642 L636.696416,158.865499 C637.834385,158.083583 639.390759,158.372219 640.172676,159.510187 Z M656.656464,148.183903 C657.405801,149.274456 657.171939,150.749274 656.149582,151.558475 L656.011776,151.660162 L647.769882,157.323304 C646.631914,158.105221 645.075539,157.816584 644.293623,156.678616 C643.544286,155.588063 643.778148,154.113245 644.800504,153.304044 L644.938311,153.202357 L653.180205,147.539215 C654.318173,146.757298 655.874547,147.045935 656.656464,148.183903 Z M673.140252,136.857619 C673.889589,137.948171 673.655727,139.422989 672.633371,140.232191 L672.495564,140.333878 L664.25367,145.99702 C663.115702,146.778937 661.559328,146.4903 660.777411,145.352332 C660.028074,144.261779 660.261937,142.786961 661.284293,141.97776 L661.422099,141.876073 L669.663993,136.212931 C670.801961,135.431014 672.358336,135.71965 673.140252,136.857619 Z M711.912095,110.216843 L696.222158,138.590702 L689.39369,128.651036 C689.309138,128.741678 689.216901,128.82696 689.117159,128.905906 L688.979353,129.007593 L680.737459,134.670736 C679.599491,135.452652 678.043116,135.164016 677.2612,134.026048 C676.511863,132.935495 676.745725,131.460677 677.768081,130.651475 L677.905888,130.549788 L686.147782,124.886646 C686.301652,124.780919 686.463172,124.694765 686.629393,124.627638 L679.799045,114.689209 L711.912095,110.216843 Z" fill="#A5A5A5" fill-rule="nonzero"></path>
            <path id="Path-15-Copy-3" d="M499.177257,289.794425 L499.325444,289.880283 L688.66,408.269 L695.022801,398.095586 L711.923943,425.765089 L679.647656,422.684301 L686.009,412.509 L496.674556,294.119717 C495.503869,293.387695 495.148261,291.845244 495.880283,290.674556 C496.581805,289.552648 498.027626,289.17931 499.177257,289.794425 Z" fill="#A5A5A5" fill-rule="nonzero"></path>
            <g id="Group-Copy-2" transform="translate(729.000000, 410.000000)">
                <g id="Group_2669-Copy" fill="#0F50C7" fill-opacity="0.4" fill-rule="nonzero" stroke="#0F50C7" stroke-width="2">
                    <path d="M131.586819,58.6713197 C132.147346,63.6592378 132.137528,68.694791 131.557553,73.6804853 C131.328582,75.6110046 129.635246,77.0289456 127.694502,76.9152697 L126.878968,76.8938085 C120.997645,76.9245556 115.694471,80.4400455 113.375847,85.8450696 C111.003216,91.5647794 112.48782,98.1586944 117.082816,102.309693 C118.521727,103.614059 118.692907,105.814561 117.473023,107.325755 C114.328777,111.241196 110.74605,114.7833 106.795002,117.882702 C105.279731,119.062225 103.112867,118.881443 101.814006,117.467136 C97.5972364,113.064209 91.1612976,111.599731 85.4545673,113.744597 C79.8036749,116.093565 76.2046325,121.703596 76.4251716,127.819226 C76.492183,129.737743 75.0707865,131.384403 73.163039,131.598344 C68.2276956,132.146631 63.246096,132.133541 58.3137023,131.559324 C56.3827877,131.336076 54.961775,129.644575 55.0749821,127.704116 C55.4299549,121.52064 51.8533566,115.783452 46.1450893,113.379757 C40.4155184,111.177291 33.9234595,112.639971 29.6920008,117.086688 C28.3853863,118.527562 26.1815123,118.698735 24.6680825,117.476891 C20.7993007,114.363402 17.2968356,110.820392 14.2280877,106.916042 C13.0395674,105.407656 13.2157029,103.237893 14.6319522,101.940951 C19.1469635,97.8038382 20.6184451,91.2981215 18.3233127,85.6207028 C16.0886948,80.0975449 10.6979508,76.5078826 4.74019849,76.5757929 C2.72089756,76.6253857 0.931158231,75.2834986 0.412800132,73.3312534 C-0.147219281,68.3433075 -0.137400847,63.3078121 0.442065676,58.3220879 C0.625756498,56.3886394 2.31456026,54.9523497 4.25243943,55.0814504 C10.4003227,55.2738038 16.0626085,51.7561617 18.6140171,46.1594546 C20.9917978,40.4428295 19.5142965,33.848445 14.9246076,29.6928801 C13.4894573,28.3866713 13.3185165,26.1892507 14.5344004,24.6768181 C17.6777498,20.7611499 21.2605836,17.2195952 25.2124216,14.121822 C26.7278112,12.9403829 28.8969605,13.1230552 30.1934171,14.5412904 C34.409597,18.9295639 40.8308093,20.3918429 46.5313945,18.2618778 C52.1842192,15.9092674 55.7841765,10.296347 55.5646922,4.17749376 C55.4989935,2.25769883 56.9233701,0.611391681 58.8326779,0.400326912 C63.7681171,-0.146187274 68.7495159,-0.133097412 73.6820147,0.43934723 C75.6131312,0.660709729 77.0348667,2.35221482 76.9207348,4.29260369 C76.5697083,10.4753047 80.1415374,16.2117245 85.8447745,18.6247667 C91.5771648,20.8225231 98.068738,19.3606456 102.305667,14.9178365 C103.608991,13.4913723 105.794542,13.3182696 107.306173,14.5217802 C111.181732,17.6321821 114.689632,21.1747384 117.761776,25.0806784 C118.952992,26.5886093 118.777606,28.7604674 117.359863,30.0577201 C112.876505,34.1282277 111.377317,40.5469754 113.593749,46.1822791 C115.81018,51.8175828 121.280401,55.4952369 127.335511,55.4209272 C129.337268,55.3802668 131.101251,56.7289427 131.586819,58.6713197 L131.586819,58.6713197 Z M66.5939,108.617328 C89.8000722,108.617328 108.612392,89.8052038 108.612392,66.599273 C108.612392,43.3933422 89.8000722,24.5812184 66.5939,24.5812184 C63.4692134,24.5946198 60.3547919,24.9399363 57.3030655,25.6113548 C36.4368362,30.3462064 22.4598005,50.0032394 24.8398952,71.2669304 C27.2199899,92.5306214 45.1971995,108.611015 66.5939,108.615377 L66.5939,108.617328 Z" id="Path_1309-2"></path>
                    <g id="Group_2378-2" transform="translate(34.813187, 35.813187)">
                        <path d="M31.5019855,62.5104842 C44.1303594,62.5104842 55.5149665,54.9101374 60.3461673,43.254155 C65.1773681,31.5981727 62.5035147,18.182544 53.5716591,9.26415146 C44.6398035,0.345758927 31.2093389,-2.31865611 19.5440673,2.51355643 C7.87879572,7.34576898 0.276537444,18.7227619 0.282887363,31.3384469 C0.291563391,48.5568257 14.2662883,62.5104842 31.5019855,62.5104842 Z" id="Path_1312-2"></path>
                    </g>
                </g>
                <text id="SVC-v1.1" font-family="Helvetica" font-size="17" font-weight="normal" fill="#A5A5A5">
                    <tspan x="48.0227051" y="153">SVC</tspan>
                    <tspan x="49.4338379" y="176">v1.1</tspan>
                </text>
            </g>
        </g>
    </g>
</svg>